<svg width="832" height="1508" viewBox="0 0 832 1508" fill="none" xmlns="http://www.w3.org/2000/svg">
<path d="M237.925 1233.67V1508L0.863281 1370.84V1096.51L237.925 1233.67Z" fill="#4B5259"/>
<path d="M237.927 1508L475.782 1370.84V1096.51L237.927 1233.67V1508Z" fill="#4B5259"/>
<path d="M237.927 1508L475.782 1370.84V1096.51L237.927 1233.67V1508Z" fill="black" fill-opacity="0.07"/>
<path d="M237.925 959.348L0.863281 1096.51L237.925 1233.67L475.78 1096.51L237.925 959.348Z" fill="#4B5259"/>
<path d="M237.925 959.348L0.863281 1096.51L237.925 1233.67L475.78 1096.51L237.925 959.348Z" fill="white" fill-opacity="0.07"/>
<path d="M831.77 616.839L594.708 479.676L0.863281 822.187L237.925 959.35L831.77 616.839Z" fill="#4B5259"/>
<path d="M831.77 616.839L594.708 479.676L0.863281 822.187L237.925 959.35L831.77 616.839Z" fill="white" fill-opacity="0.07"/>
<path d="M237.927 959.349V1233.67L831.771 891.164V616.838L237.927 959.349Z" fill="#4B5259"/>
<path d="M237.927 959.349V1233.67L831.771 891.164V616.838L237.927 959.349Z" fill="black" fill-opacity="0.07"/>
<path d="M0.863281 822.186V1096.51L237.925 1233.67V959.349L0.863281 822.186Z" fill="#4B5259"/>
<path d="M0.863281 137.163L237.925 0L831.77 342.511L594.708 479.674L0.863281 137.163Z" fill="#4B5259"/>
<path d="M0.863281 137.163L237.925 0L831.77 342.511L594.708 479.674L0.863281 137.163Z" fill="white" fill-opacity="0.07"/>
<path d="M594.708 479.673V753.999L0.863281 411.488V137.162L594.708 479.673Z" fill="#4B5259"/>
<path d="M831.774 342.51V616.836L594.712 753.999V479.673L831.774 342.51Z" fill="#4B5259"/>
<path d="M831.774 342.51V616.836L594.712 753.999V479.673L831.774 342.51Z" fill="black" fill-opacity="0.07"/>
</svg>
