<svg width="37" height="97" viewBox="0 0 37 97" fill="none" xmlns="http://www.w3.org/2000/svg">
<path d="M18.7208 96C24.8722 77.8603 38.0538 78.6268 28.9731 65.8524C20.6753 54.1792 12.5693 59.2097 14.6198 51.0341C16.6703 42.8585 26.9227 39.0262 23.4075 32.128C19.8924 25.2298 6.4178 17.0542 10.5188 7.34561C14.6198 -2.36295 26.3369 3.76877 24.8722 5.55719C23.4075 7.34561 21.6501 10.6669 17.5491 8.11201" stroke="white" stroke-width="3"/>
<path d="M7.84253 73.0622C7.97831 77.4592 9.79486 87.3889 19.3889 86.903C31.3815 86.2957 10.7002 73.2081 7.84253 73.0622Z" stroke="white"/>
<path d="M21.3801 86.2902C18.2232 84.78 12.9307 79.6181 10.8184 76.282" stroke="white"/>
<path d="M1.17239 46.2607C2.43859 49.039 6.26118 55.0204 12.2505 52.8491C19.7372 50.1349 3.03429 45.7994 1.17239 46.2607Z" stroke="white"/>
<path d="M13.3574 52.0716C10.9386 51.7207 6.17791 49.4549 3.93555 47.7368" stroke="white"/>
<path d="M32.8518 36.5027C31.641 39.5161 27.9142 46.0562 21.7317 44.0365C14.0036 41.5119 30.9361 36.1019 32.8518 36.5027Z" stroke="white"/>
<path d="M20.579 43.2639C23.0393 42.7748 27.8348 40.1382 30.0742 38.2046" stroke="white"/>
<path d="M20.5545 14.774C20.8189 16.841 20.7429 21.5855 16.4296 21.8458C11.038 22.1713 19.2912 14.9877 20.5545 14.774Z" stroke="white"/>
<path d="M15.4976 21.6602C16.7935 20.7921 18.7716 18.1045 19.4668 16.4341" stroke="white"/>
<path d="M36.4306 52.3396C36.318 55.5661 35.0091 62.8483 28.3108 62.465C19.9379 61.9859 34.4343 52.4386 36.4306 52.3396Z" stroke="white"/>
<path d="M26.9213 62.0101C29.1321 60.9106 32.8492 57.137 34.3379 54.6946" stroke="white"/>
<path d="M6.32858 27.7372C8.51377 30.0664 14.2646 34.802 19.2164 31.207C25.4062 26.7132 7.94306 26.8235 6.32858 27.7372Z" stroke="white"/>
<path d="M19.9993 30.1836C17.5678 30.4639 12.2283 29.5124 9.48438 28.4431" stroke="white"/>
<path d="M5.40304 10.8128C5.45093 12.3637 6.09167 15.8662 9.47572 15.6948C13.7058 15.4806 6.41099 10.8643 5.40304 10.8128Z" stroke="white"/>
<path d="M10.1785 15.4786C9.06497 14.9459 7.1982 13.1252 6.45312 11.9485" stroke="white"/>
</svg>
