<svg width="90" height="87" viewBox="0 0 90 87" fill="none" xmlns="http://www.w3.org/2000/svg">
<path d="M28.8574 85.5794C26.7671 85.5794 24.7929 84.6561 23.4574 82.9826L3.13485 57.88C1.79937 56.2065 1.27679 54.0714 1.79937 51.9939L9.05743 20.659C9.52195 18.5816 10.9155 16.9081 12.8316 15.9848L42.2123 2.01969C43.1413 1.55804 44.1865 1.32721 45.2316 1.32721C46.2768 1.32721 47.3219 1.55804 48.251 2.01969L77.6316 15.9271C79.5478 16.8504 80.9413 18.5239 81.4058 20.6013L88.6639 51.9362C89.1284 54.0137 88.6639 56.1488 87.3284 57.8223L67.0058 82.9248C65.6703 84.5406 63.6961 85.5217 61.6058 85.5217L28.8574 85.5794Z" fill="#326DE6"/>
<path d="M45.1748 2.76991C45.9877 2.76991 46.8006 2.94303 47.5555 3.28927L76.9361 17.1966C78.4458 17.9468 79.6071 19.3318 79.9555 20.9476L87.2135 52.2825C87.62 53.956 87.2135 55.6872 86.1103 57.0144L65.7877 82.117C64.7426 83.4442 63.1168 84.1944 61.4329 84.1944H28.8587C27.1748 84.1944 25.549 83.4442 24.5039 82.117L4.18128 57.0144C3.13612 55.6872 2.72967 53.956 3.07806 52.2825L10.3361 20.9476C10.7426 19.2741 11.8458 17.8891 13.3555 17.1966L42.7361 3.23156C43.491 2.94303 44.3619 2.76991 45.1748 2.76991ZM45.1748 0.0576782C43.9555 0.0576782 42.7361 0.346213 41.5748 0.865576L12.1942 14.8307C9.87161 15.9271 8.2458 17.9468 7.66516 20.4282L0.407091 51.7631C-0.173554 54.2445 0.407091 56.7836 2.0329 58.8034L22.3555 83.9059C23.9232 85.8679 26.3039 86.9644 28.8006 86.9644H61.3748C63.8716 86.9644 66.2523 85.8679 67.82 83.9059L88.1426 58.8034C89.7684 56.8413 90.349 54.2445 89.7684 51.7631L82.5103 20.4282C81.9297 17.9468 80.3039 15.9271 77.9813 14.8307L48.7168 0.865576C47.6135 0.346213 46.3942 0.0576782 45.1748 0.0576782Z" fill="white"/>
<path d="M74.613 49.801C74.555 49.801 74.555 49.801 74.613 49.801H74.555C74.4969 49.801 74.4389 49.801 74.4389 49.7433C74.3227 49.7433 74.2066 49.6856 74.0905 49.6856C73.684 49.6279 73.3356 49.5702 72.9872 49.5702C72.813 49.5702 72.6389 49.5702 72.4066 49.5125H72.3485C71.1292 49.3971 70.1421 49.2817 69.213 48.9931C68.8066 48.82 68.6905 48.5892 68.5743 48.3584C68.5743 48.3006 68.5163 48.3006 68.5163 48.2429L67.7614 48.0121C68.1098 45.3576 67.9937 42.5877 67.355 39.8754C66.7163 37.1632 65.613 34.6241 64.1034 32.3158L64.684 31.7965V31.681C64.684 31.3925 64.7421 31.104 64.9743 30.8154C65.6711 30.1807 66.5421 29.6613 67.5872 29.0265C67.7614 28.9111 67.9356 28.8534 68.1098 28.738C68.4582 28.5649 68.7485 28.3917 69.0969 28.1609C69.155 28.1032 69.2711 28.0455 69.3872 27.9301C69.4453 27.8724 69.5034 27.8724 69.5034 27.8147C70.3163 27.1222 70.4905 25.9681 69.9098 25.2179C69.6195 24.8139 69.0969 24.5831 68.5743 24.5831C68.1098 24.5831 67.7034 24.7562 67.2969 25.0447C67.2389 25.1024 67.2389 25.1024 67.1808 25.1602C67.0647 25.2179 67.0066 25.3333 66.8905 25.391C66.6001 25.6795 66.3679 25.9103 66.1356 26.1989C66.0195 26.3143 65.9034 26.4874 65.7292 26.6028C64.9163 27.4684 64.1614 28.1609 63.4066 28.6803C63.2324 28.7957 63.0582 28.8534 62.884 28.8534C62.7679 28.8534 62.6518 28.8534 62.5356 28.7957H62.4195L61.7227 29.2573C60.9679 28.4495 60.155 27.757 59.3421 27.0645C55.8582 24.3523 51.6195 22.6788 47.2066 22.2748L47.1485 21.5246C47.0905 21.4669 47.0905 21.4669 47.0324 21.4092C46.8582 21.2361 46.6259 21.063 46.5679 20.659C46.5098 19.7357 46.6259 18.697 46.7421 17.5428V17.4851C46.7421 17.312 46.8001 17.0812 46.8582 16.9081C46.9163 16.5618 46.9743 16.2156 47.0324 15.8116V15.4654V15.2923C47.0324 14.2535 46.2195 13.3879 45.2324 13.3879C44.7679 13.3879 44.3034 13.6188 43.955 13.965C43.6066 14.3113 43.4324 14.7729 43.4324 15.2923V15.4077V15.7539C43.4324 16.1579 43.4905 16.5041 43.6066 16.8504C43.6647 17.0235 43.6647 17.1966 43.7227 17.4274V17.4851C43.8389 18.6393 44.013 19.678 43.8969 20.6013C43.8389 21.0053 43.6066 21.1784 43.4324 21.3515C43.3743 21.4092 43.3743 21.4092 43.3163 21.4669L43.2582 22.2171C42.213 22.3325 41.1679 22.4479 40.1227 22.6788C35.6518 23.6598 31.7034 25.9103 28.6259 29.1419L28.0453 28.738H27.9292C27.813 28.738 27.6969 28.7957 27.5808 28.7957C27.4066 28.7957 27.2324 28.738 27.0582 28.6226C26.3034 28.1032 25.5485 27.353 24.7356 26.4874C24.6195 26.372 24.5034 26.1989 24.3292 26.0835C24.0969 25.7949 23.8647 25.5641 23.5743 25.2756C23.5163 25.2179 23.4001 25.1602 23.284 25.0447C23.2259 24.987 23.1679 24.987 23.1679 24.9293C22.8195 24.6408 22.355 24.4677 21.8905 24.4677C21.3679 24.4677 20.8453 24.6985 20.555 25.1024C19.9743 25.8526 20.1485 27.0068 20.9614 27.6993C21.0195 27.6993 21.0195 27.757 21.0776 27.757C21.1937 27.8147 21.2518 27.9301 21.3679 27.9878C21.7163 28.2186 22.0066 28.3917 22.355 28.5649C22.5292 28.6226 22.7034 28.738 22.8776 28.8534C23.9227 29.4882 24.7937 30.0075 25.4905 30.6423C25.7808 30.9309 25.7808 31.2194 25.7808 31.5079V31.6233L26.3614 32.1427C26.2453 32.3158 26.1292 32.4312 26.0711 32.6044C23.1679 37.1632 22.0647 42.53 22.8195 47.839L22.0647 48.0698C22.0647 48.1275 22.0066 48.1275 22.0066 48.1852C21.8905 48.4161 21.7163 48.6469 21.3679 48.82C20.4969 49.1085 19.4518 49.224 18.2324 49.3394H18.1743C18.0001 49.3394 17.7679 49.3394 17.5937 49.3971C17.2453 49.3971 16.8969 49.4548 16.4905 49.5125C16.3743 49.5125 16.2582 49.5702 16.1421 49.5702C16.084 49.5702 16.0259 49.5702 15.9679 49.6279C14.9227 49.8587 14.284 50.8397 14.4582 51.7631C14.6324 52.571 15.3872 53.0903 16.3163 53.0903C16.4905 53.0903 16.6066 53.0903 16.7808 53.0326C16.8389 53.0326 16.8969 53.0326 16.8969 52.9749C17.013 52.9749 17.1292 52.9172 17.2453 52.9172C17.6518 52.8018 17.9421 52.6864 18.2905 52.5132C18.4647 52.4555 18.6388 52.3401 18.813 52.2824H18.8711C19.9743 51.8785 20.9614 51.5322 21.8905 51.4168H22.0066C22.355 51.4168 22.5872 51.5899 22.7614 51.7054C22.8195 51.7054 22.8195 51.7631 22.8776 51.7631L23.6905 51.6476C25.084 55.918 27.755 59.7266 31.2969 62.4965C32.1098 63.1313 32.9227 63.6507 33.7937 64.17L33.4453 64.9202C33.4453 64.978 33.5034 64.978 33.5034 65.0357C33.6195 65.2665 33.7356 65.555 33.6195 65.959C33.2711 66.8246 32.7485 67.6902 32.1098 68.6712V68.7289C31.9937 68.902 31.8776 69.0174 31.7614 69.1906C31.5292 69.4791 31.355 69.7676 31.1227 70.1139C31.0647 70.1716 31.0066 70.287 30.9485 70.4024C30.9485 70.4601 30.8905 70.5178 30.8905 70.5178C30.4259 71.4988 30.7743 72.5953 31.6453 72.9992C31.8776 73.1146 32.1098 73.1723 32.3421 73.1723C33.0388 73.1723 33.7356 72.7107 34.084 72.0759C34.084 72.0182 34.1421 71.9605 34.1421 71.9605C34.2001 71.8451 34.2582 71.7297 34.3163 71.672C34.4905 71.268 34.5485 70.9795 34.6647 70.6332C34.7227 70.4601 34.7808 70.287 34.8389 70.1139C35.2453 68.9597 35.5356 68.0364 36.0582 67.2285C36.2905 66.8823 36.5808 66.8246 36.813 66.7092C36.8711 66.7092 36.8711 66.7092 36.9292 66.6515L37.3356 65.9013C39.8905 66.8823 42.6776 67.4016 45.4647 67.4016C47.1485 67.4016 48.8905 67.2285 50.5163 66.8246C51.5614 66.5938 52.5485 66.3052 53.5356 65.959L53.884 66.5938C53.9421 66.5938 53.9421 66.5938 54.0001 66.6515C54.2905 66.7092 54.5227 66.8246 54.755 67.1708C55.2195 67.9787 55.5679 68.9597 55.9743 70.0562V70.1139C56.0324 70.287 56.0905 70.4601 56.1485 70.6332C56.2647 70.9795 56.3227 71.3257 56.4969 71.672C56.555 71.7874 56.613 71.8451 56.6711 71.9605C56.6711 72.0182 56.7292 72.0759 56.7292 72.0759C57.0776 72.7684 57.7743 73.1723 58.4711 73.1723C58.7034 73.1723 58.9356 73.1146 59.1679 72.9992C59.5743 72.7684 59.9227 72.4221 60.0389 71.9605C60.155 71.4988 60.155 70.9795 59.9227 70.5178C59.9227 70.4601 59.8647 70.4601 59.8647 70.4024C59.8066 70.287 59.7485 70.1716 59.6905 70.1139C59.5163 69.7676 59.284 69.4791 59.0518 69.1906C58.9356 69.0174 58.8195 68.902 58.7034 68.7289V68.6712C58.0647 67.6902 57.484 66.8246 57.1937 65.959C57.0776 65.555 57.1937 65.3242 57.2518 65.0357C57.2518 64.978 57.3098 64.978 57.3098 64.9202L57.0195 64.2278C60.0969 62.4388 62.7098 59.8997 64.684 56.7836C65.7292 55.1678 66.5421 53.3789 67.1227 51.5899L67.8195 51.7054C67.8776 51.7054 67.8776 51.6476 67.9356 51.6476C68.1679 51.5322 68.3421 51.3591 68.6905 51.3591H68.8066C69.7356 51.4745 70.7227 51.8208 71.826 52.2247H71.884C72.0582 52.2824 72.2324 52.3978 72.4066 52.4555C72.755 52.6287 73.0453 52.7441 73.4518 52.8595C73.5679 52.8595 73.684 52.9172 73.8001 52.9172C73.8582 52.9172 73.9163 52.9172 73.9743 52.9749C74.1485 53.0326 74.2647 53.0326 74.4389 53.0326C75.3098 53.0326 76.0647 52.4555 76.2969 51.7054C76.2969 51.0129 75.6582 50.0896 74.613 49.801ZM47.7292 46.9734L45.1743 48.1852L42.6195 46.9734L41.9808 44.2612L43.7227 42.0683H46.5679L48.3098 44.2612L47.7292 46.9734ZM62.884 40.9719C63.3485 42.9339 63.4647 44.8959 63.2905 46.8003L54.4066 44.2612C53.5937 44.0303 53.1292 43.2224 53.3034 42.4145C53.3614 42.1837 53.4776 41.9529 53.6518 41.7798L60.6776 35.4897C61.6647 37.1055 62.4195 38.9521 62.884 40.9719ZM57.8905 32.0273L50.284 37.394C49.6453 37.798 48.7743 37.6826 48.2518 37.0478C48.0776 36.8747 48.0195 36.6438 47.9614 36.413L47.4389 27.0068C51.4453 27.4684 55.1034 29.2573 57.8905 32.0273ZM41.0518 27.2953C41.6905 27.1799 42.2711 27.0645 42.9098 26.9491L42.3872 36.1822C42.3292 36.9901 41.6905 37.6826 40.8195 37.6826C40.5872 37.6826 40.2969 37.6249 40.1227 37.5094L32.4001 32.0273C34.7808 29.6613 37.7421 28.0455 41.0518 27.2953ZM29.613 35.4897L36.5227 41.6066C37.1614 42.126 37.2195 43.107 36.6969 43.7418C36.5227 43.9726 36.2905 44.1457 36.0001 44.2034L27.0001 46.8003C26.6518 42.8762 27.5227 38.8944 29.613 35.4897ZM28.0453 51.1283L37.2776 49.5702C38.0324 49.5125 38.7292 50.0319 38.9034 50.782C38.9614 51.1283 38.9614 51.4168 38.8453 51.7054L35.3034 60.1883C32.0518 58.1108 29.4389 54.9369 28.0453 51.1283ZM49.2389 62.612C47.9034 62.9005 46.5679 63.0736 45.1743 63.0736C43.1421 63.0736 41.1679 62.7274 39.3098 62.1503L43.8969 53.8982C44.3614 53.3789 45.1163 53.148 45.755 53.4943C46.0453 53.6674 46.2776 53.8982 46.4518 54.129L50.9227 62.1503C50.4001 62.3234 49.8195 62.4388 49.2389 62.612ZM60.5614 54.5907C59.1098 56.899 57.1937 58.7456 54.9872 60.1883L51.3292 51.4745C51.155 50.782 51.4453 50.0319 52.1421 49.6856C52.3743 49.5702 52.6647 49.5125 52.955 49.5125L62.2453 51.0706C61.8969 52.3401 61.3163 53.4943 60.5614 54.5907Z" fill="white"/>
</svg>
