<svg width="89" height="73" viewBox="0 0 89 73" fill="none" xmlns="http://www.w3.org/2000/svg">
<path d="M66.0018 46.8077L50.2186 37.6965C48.8555 36.9073 47.0619 37.3378 46.2728 38.7726C45.9858 39.2031 45.9141 39.7053 45.9141 40.2075V58.43C45.9141 59.4343 46.488 60.367 47.3489 60.9409L66.0018 71.7022C66.8627 72.2044 68.0106 72.2044 68.8715 71.7022L87.5245 60.9409C88.3854 60.4387 88.9593 59.5061 88.9593 58.43V40.2075C88.9593 38.6292 87.6679 37.3378 86.0896 37.3378C85.5874 37.3378 85.0852 37.4813 84.6548 37.6965L68.8715 46.8077C68.0106 47.3099 66.9345 47.3099 66.0018 46.8077Z" fill="#DE156C"/>
<path d="M67.4375 49.3187V67.5412C67.4375 69.1195 68.7289 70.4109 70.3072 70.4109C70.8094 70.4109 71.3116 70.2674 71.742 70.0522L87.5253 60.9409C88.3862 60.4387 88.9601 59.5061 88.9601 58.4299V40.2075C88.9601 38.6291 87.6688 37.3378 86.0904 37.3378C85.5882 37.3378 85.086 37.4813 84.6556 37.6965L68.8723 46.8077C68.0114 47.3099 67.4375 48.3143 67.4375 49.3187Z" fill="url(#paint0_linear)"/>
<path d="M61.6958 0.390596L45.9125 9.50184C45.0516 10.004 43.9038 10.004 43.0429 9.50184L27.2596 0.390596C25.8965 -0.398567 24.103 0.0318854 23.3138 1.46673C23.0268 1.89718 22.9551 2.39937 22.9551 2.90157V21.1241C22.9551 22.1284 23.529 23.0611 24.3899 23.635L43.0429 34.3963C43.9038 34.8985 45.0516 34.8985 45.9125 34.3963L64.5655 23.635C65.4264 23.1328 66.0003 22.2002 66.0003 21.1241V2.90157C66.0003 1.32324 64.709 0.0318854 63.1306 0.0318854C62.6284 0.0318854 62.1262 0.175369 61.6958 0.390596Z" fill="#47529D"/>
<path d="M61.6966 0.390571L45.9134 9.50181C45.0525 10.004 44.4785 10.9367 44.4785 12.0128V30.2353C44.4785 31.8136 45.7699 33.105 47.3482 33.105C47.8504 33.105 48.3526 32.9615 48.783 32.7462L64.5663 23.635C65.4272 23.1328 66.0011 22.2002 66.0011 21.124V2.90154C66.0011 1.32322 64.7098 0.0318604 63.1315 0.0318604C62.6293 0.0318604 62.1271 0.175344 61.6966 0.390571Z" fill="url(#paint1_linear)"/>
<path d="M20.0878 46.8077L4.30452 37.6965C2.94142 36.9073 1.14787 37.3378 0.35871 38.7726C0.0717421 39.2031 0 39.7053 0 40.2075V58.43C0 59.4343 0.573936 60.367 1.43484 60.9409L20.0878 71.7022C20.9487 72.2044 22.0966 72.2044 22.9575 71.7022L41.6104 60.9409C42.4713 60.4387 43.0452 59.5061 43.0452 58.43V40.2075C43.0452 38.6292 41.7539 37.3378 40.1756 37.3378C39.6734 37.3378 39.1712 37.4813 38.7407 37.6965L22.9575 46.8077C22.0966 47.3099 21.0204 47.3099 20.0878 46.8077Z" fill="#252960"/>
<path d="M21.5234 49.3187V67.5412C21.5234 69.1195 22.8148 70.4109 24.3931 70.4109C24.8953 70.4109 25.3975 70.2674 25.828 70.0522L41.6112 60.9409C42.4721 60.4387 43.0461 59.5061 43.0461 58.4299V40.2075C43.0461 38.6291 41.7547 37.3378 40.1764 37.3378C39.6742 37.3378 39.172 37.4813 38.7415 37.6965L22.9583 46.8077C22.0974 47.3099 21.5234 48.3143 21.5234 49.3187Z" fill="url(#paint2_linear)"/>
<defs>
<linearGradient id="paint0_linear" x1="78.2272" y1="37.3215" x2="78.2272" y2="70.4223" gradientUnits="userSpaceOnUse">
<stop stop-color="#FC72C7"/>
<stop offset="1" stop-color="#DE156C"/>
</linearGradient>
<linearGradient id="paint1_linear" x1="55.2682" y1="0.0156188" x2="55.2682" y2="33.1164" gradientUnits="userSpaceOnUse">
<stop stop-color="#8896DB"/>
<stop offset="1" stop-color="#47529D"/>
</linearGradient>
<linearGradient id="paint2_linear" x1="32.3132" y1="37.3202" x2="32.3132" y2="70.421" gradientUnits="userSpaceOnUse">
<stop stop-color="#757CBA"/>
<stop offset="1" stop-color="#252960"/>
</linearGradient>
</defs>
</svg>
