<svg width="246" height="88" viewBox="0 0 246 88" fill="none" xmlns="http://www.w3.org/2000/svg">
<g clip-path="url(#clip0)">
<path d="M67.3652 33.1272C68.9383 29.5183 71.1591 26.7886 74.0277 24.9842C76.8962 23.1797 80.0887 22.2544 83.5124 22.2544C86.1497 22.2544 88.6018 22.7171 90.8226 23.6887C93.0435 24.6603 94.9404 26.002 96.5135 27.6676C98.0866 29.3795 99.3358 31.369 100.169 33.7286C101.048 36.0883 101.464 38.6329 101.464 41.409C101.464 44.1387 101.001 46.6372 100.122 48.9505C99.2432 51.2639 97.994 53.2996 96.421 54.9652C94.8479 56.6771 92.9509 57.9726 90.7301 58.9442C88.5093 59.9158 86.1034 60.3785 83.5124 60.3785C81.8006 60.3785 80.1349 60.1471 78.4693 59.6845C76.85 59.2218 75.3232 58.5278 73.8889 57.6025C72.5009 56.6771 71.2054 55.5667 70.0487 54.225C68.892 52.8832 68.013 51.3564 67.319 49.552H67.0876V78.1913H65.2832V23.3185H67.0876V33.1272H67.3652ZM99.7985 41.4552C99.7985 39.0956 99.4283 36.8748 98.688 34.7002C97.9478 32.572 96.8374 30.675 95.4494 29.0557C94.0613 27.4363 92.3495 26.1408 90.3137 25.1692C88.3242 24.1976 86.0571 23.7349 83.5587 23.7349C81.1528 23.7349 78.9783 24.1976 76.9425 25.123C74.953 26.0483 73.1949 27.3438 71.7606 28.9169C70.28 30.4899 69.1696 32.3869 68.3368 34.5152C67.504 36.6435 67.0876 38.9105 67.0876 41.3164C67.0876 43.7223 67.504 45.9894 68.3368 48.1177C69.1696 50.246 70.3263 52.1429 71.7606 53.716C73.2411 55.2891 74.953 56.5846 76.9425 57.5099C78.932 58.4353 81.1528 58.8979 83.5587 58.8979C86.0571 58.8979 88.3242 58.4353 90.3137 57.5099C92.3032 56.5846 94.0151 55.2891 95.4494 53.716C96.8374 52.1429 97.9478 50.246 98.688 48.1177C99.4283 46.0357 99.7985 43.7686 99.7985 41.4552Z" fill="white"/>
<path d="M130.983 51.2175C130.983 52.5592 131.029 54.0398 131.168 55.5666C131.307 57.0934 131.445 58.3889 131.584 59.3605H129.919C129.826 58.8515 129.734 58.2038 129.687 57.4635C129.641 56.7233 129.548 55.9367 129.502 55.1039C129.41 54.3174 129.363 53.4846 129.363 52.698C129.317 51.9115 129.317 51.2637 129.317 50.7548H129.086C128.022 54.0398 126.217 56.4919 123.673 58.065C121.128 59.6381 118.352 60.4709 115.437 60.4709C113.956 60.4709 112.522 60.2396 111.088 59.8232C109.654 59.4068 108.358 58.759 107.201 57.9262C106.045 57.0934 105.119 56.0293 104.425 54.7338C103.731 53.4383 103.361 51.8652 103.361 50.1071C103.361 47.5624 104.009 45.4804 105.351 43.9073C106.693 42.3342 108.358 41.1313 110.348 40.2522C112.337 39.3731 114.465 38.8179 116.733 38.5866C119 38.309 121.082 38.2164 122.979 38.2164H129.225V35.3016C129.225 31.2764 128.16 28.3615 126.032 26.5108C123.904 24.6602 121.082 23.7348 117.658 23.7348C115.53 23.7348 113.54 24.105 111.643 24.8915C109.792 25.678 108.127 26.7422 106.646 28.0377L105.721 26.6959C107.387 25.2154 109.284 24.105 111.412 23.3647C113.54 22.6244 115.622 22.208 117.658 22.208C121.776 22.208 125.014 23.2722 127.42 25.4004C129.78 27.5287 130.983 30.86 130.983 35.3941V51.2175ZM129.225 39.697H123.673C121.683 39.697 119.601 39.8358 117.427 40.0671C115.252 40.2984 113.216 40.8074 111.412 41.5014C109.561 42.2417 108.081 43.2595 106.924 44.6475C105.767 45.9893 105.166 47.84 105.166 50.1533C105.166 51.8189 105.49 53.207 106.137 54.3636C106.785 55.474 107.618 56.3994 108.636 57.0471C109.654 57.7411 110.764 58.2038 112.013 58.5277C113.262 58.8515 114.419 58.9903 115.483 58.9903C118.167 58.9903 120.388 58.4814 122.146 57.5098C123.904 56.5382 125.338 55.2427 126.402 53.7159C127.466 52.1891 128.207 50.4772 128.623 48.6265C129.04 46.7758 129.271 44.9714 129.271 43.167V39.697H129.225Z" fill="white"/>
<path d="M139.403 39.9284L158.049 23.3185H160.455L141.439 40.0209L162.675 59.3605H160.084L139.403 40.3448H139.311V59.3605H137.599V0.138672H139.311V39.9284H139.403Z" fill="white"/>
<path d="M161.01 40.9462C161.01 43.1207 161.334 45.2953 161.982 47.4698C162.629 49.5981 163.647 51.5413 164.943 53.207C166.285 54.9188 167.95 56.2606 169.986 57.3247C172.022 58.3889 174.428 58.8978 177.204 58.8978C180.026 58.8978 182.524 58.3426 184.745 57.2322C186.92 56.1218 188.863 54.4562 190.482 52.3279L191.731 53.4383C189.973 55.7517 187.891 57.4635 185.485 58.6665C183.126 59.8694 180.35 60.4709 177.204 60.4709C174.52 60.4709 172.114 60.0082 169.94 59.0366C167.765 58.065 165.868 56.7233 164.249 55.0114C162.676 53.2995 161.427 51.2175 160.547 48.8116C159.668 46.4057 159.252 43.8147 159.252 40.9924C159.252 38.2627 159.715 35.7643 160.594 33.4509C161.473 31.1376 162.722 29.1481 164.249 27.4825C165.776 25.8168 167.626 24.5214 169.708 23.596C171.79 22.6707 174.057 22.208 176.463 22.208C179.286 22.208 181.738 22.7169 183.866 23.6886C185.948 24.6602 187.706 26.0019 189.094 27.6213C190.482 29.2406 191.5 31.0913 192.194 33.127C192.888 35.2091 193.212 37.2911 193.212 39.4194V40.8999H161.01V40.9462ZM191.5 39.4656C191.454 37.106 191.037 34.9777 190.297 33.0345C189.557 31.0913 188.493 29.4257 187.197 28.0377C185.902 26.6496 184.329 25.5855 182.478 24.8452C180.627 24.105 178.592 23.6886 176.371 23.6886C173.641 23.6886 171.328 24.2438 169.384 25.3542C167.441 26.4646 165.868 27.8526 164.665 29.5182C163.416 31.1838 162.537 32.8957 161.982 34.7001C161.427 36.5045 161.103 38.0776 161.103 39.4194H191.5V39.4656Z" fill="white"/>
<path d="M208.618 60.1007C207.786 60.2396 206.953 60.3321 206.213 60.3321C203.39 60.3321 201.401 59.5455 200.198 57.9262C198.995 56.3531 198.393 54.3174 198.393 51.9115V24.8452H190.574V23.3647H198.347V12.7695H200.059V23.3647H210.654V24.8452H200.059V51.9577C200.059 54.4099 200.66 56.168 201.863 57.2322C203.066 58.2963 204.639 58.8515 206.629 58.8515C208.109 58.8515 209.405 58.6202 210.608 58.1575L210.839 59.4993C210.191 59.7306 209.451 59.9157 208.618 60.1007Z" fill="white"/>
<path d="M245.4 41.2701C245.4 44.0923 244.938 46.6833 244.012 49.0429C243.087 51.4025 241.792 53.4383 240.126 55.1039C238.46 56.8158 236.471 58.1113 234.111 59.0829C231.798 60.0082 229.253 60.4709 226.477 60.4709C223.701 60.4709 221.156 60.0082 218.889 59.0829C216.576 58.1575 214.587 56.8158 212.921 55.1039C211.255 53.392 209.96 51.4025 209.034 49.0429C208.109 46.6833 207.646 44.0923 207.646 41.2701C207.646 38.4478 208.109 35.8568 209.034 33.5434C209.96 31.2301 211.255 29.2406 212.921 27.5287C214.587 25.8631 216.576 24.5676 218.889 23.596C221.203 22.6707 223.701 22.208 226.477 22.208C229.253 22.208 231.798 22.6707 234.111 23.596C236.425 24.5214 238.414 25.8631 240.126 27.5287C241.792 29.1943 243.087 31.1838 244.012 33.5434C244.938 35.9031 245.4 38.4478 245.4 41.2701ZM243.689 41.2701C243.689 38.8642 243.318 36.5971 242.532 34.4688C241.745 32.3405 240.635 30.4436 239.108 28.8705C237.628 27.2974 235.823 26.0019 233.695 25.1228C231.567 24.1975 229.207 23.7348 226.523 23.7348C223.84 23.7348 221.48 24.1975 219.398 25.1228C217.316 26.0482 215.512 27.2974 214.031 28.8705C212.551 30.4436 211.394 32.3405 210.608 34.4688C209.821 36.5971 209.451 38.8642 209.451 41.2701C209.451 43.7222 209.821 46.0356 210.608 48.1638C211.394 50.2921 212.505 52.1891 214.031 53.7622C215.512 55.3352 217.316 56.6307 219.398 57.5561C221.48 58.4814 223.886 58.9441 226.523 58.9441C229.207 58.9441 231.567 58.4814 233.695 57.5561C235.823 56.6307 237.628 55.3352 239.108 53.7622C240.589 52.1891 241.745 50.2921 242.532 48.1638C243.318 46.0356 243.689 43.7222 243.689 41.2701Z" fill="white"/>
<path d="M137.737 66.3469H141.346C141.855 66.3469 142.318 66.3932 142.78 66.4857C143.243 66.5783 143.659 66.7633 144.029 66.9947C144.4 67.226 144.677 67.5036 144.908 67.8737C145.14 68.2439 145.232 68.7065 145.232 69.2618C145.232 69.9558 145.047 70.511 144.677 70.9736C144.307 71.4363 143.798 71.7602 143.15 71.9452V71.9915C143.52 72.0378 143.891 72.1303 144.214 72.2691C144.538 72.4079 144.816 72.6393 145.047 72.9169C145.279 73.1945 145.464 73.4721 145.602 73.7959C145.741 74.1198 145.788 74.4899 145.788 74.9063C145.788 75.5541 145.649 76.1093 145.371 76.5257C145.094 76.9421 144.723 77.266 144.307 77.5436C143.844 77.7749 143.382 77.96 142.826 78.0525C142.271 78.145 141.716 78.1913 141.161 78.1913H137.645V66.3469H137.737ZM139.125 71.3438H141.068C141.392 71.3438 141.716 71.3438 142.04 71.2975C142.364 71.2512 142.641 71.1587 142.919 71.0199C143.197 70.8811 143.382 70.696 143.52 70.4184C143.659 70.1871 143.752 69.817 143.752 69.4468C143.752 69.0767 143.659 68.7991 143.52 68.5677C143.382 68.3364 143.197 68.1513 142.965 68.0125C142.734 67.8737 142.456 67.7812 142.132 67.7349C141.809 67.6887 141.531 67.6424 141.207 67.6424H139.125V71.3438ZM139.125 76.8958H141.485C141.809 76.8958 142.179 76.8496 142.503 76.8033C142.826 76.757 143.15 76.6182 143.428 76.4332C143.706 76.2944 143.937 76.063 144.076 75.7854C144.261 75.5078 144.307 75.1839 144.307 74.8138C144.307 74.3974 144.214 74.0735 144.076 73.7959C143.937 73.5183 143.706 73.287 143.428 73.1482C143.15 72.9631 142.873 72.8706 142.549 72.7781C142.225 72.6855 141.855 72.6855 141.485 72.6855H139.079V76.8958H139.125Z" fill="white"/>
<path d="M157.123 73.6571C157.123 74.3049 157.031 74.9063 156.892 75.5078C156.753 76.1093 156.476 76.6182 156.105 77.0346C155.735 77.4973 155.273 77.8212 154.717 78.0988C154.162 78.3764 153.468 78.4689 152.635 78.4689C151.803 78.4689 151.155 78.3301 150.553 78.0988C149.998 77.8212 149.535 77.4973 149.165 77.0346C148.795 76.572 148.564 76.063 148.379 75.5078C148.24 74.9063 148.147 74.3049 148.147 73.6571V66.3469H149.535V73.4721C149.535 73.9347 149.582 74.3974 149.674 74.8601C149.767 75.3227 149.952 75.6929 150.183 76.063C150.415 76.4332 150.738 76.6645 151.109 76.8958C151.479 77.1272 151.988 77.2197 152.589 77.2197C153.191 77.2197 153.653 77.1272 154.07 76.8958C154.44 76.7108 154.764 76.4332 154.995 76.063C155.226 75.6929 155.411 75.3227 155.504 74.8601C155.596 74.3974 155.643 73.9347 155.643 73.4721V66.3469H157.031V73.6571H157.123Z" fill="white"/>
<path d="M160.037 66.3469H161.425V78.1913H160.037V66.3469Z" fill="white"/>
<path d="M164.387 66.3469H165.775V76.8496H171.188V78.145H164.387V66.3469Z" fill="white"/>
<path d="M172.483 66.3469H177.018C177.388 66.3469 177.804 66.3932 178.267 66.4857C178.683 66.5783 179.146 66.7171 179.562 66.9021C179.979 67.0872 180.395 67.3648 180.811 67.6424C181.228 67.9663 181.552 68.3364 181.876 68.7528C182.199 69.2155 182.431 69.6782 182.616 70.2796C182.801 70.8348 182.893 71.4826 182.893 72.2229C182.893 72.9631 182.801 73.6109 182.616 74.1661C182.431 74.7213 182.199 75.2302 181.876 75.6929C181.552 76.1556 181.228 76.5257 180.811 76.8033C180.395 77.1272 180.025 77.3585 179.562 77.5436C179.146 77.7286 178.683 77.8674 178.267 77.96C177.85 78.0525 177.434 78.0988 177.018 78.0988H172.483V66.3469ZM173.918 76.8958H176.601C177.295 76.8958 177.897 76.8033 178.498 76.6182C179.1 76.4332 179.562 76.1556 179.979 75.7854C180.395 75.4153 180.719 74.9526 180.997 74.3511C181.228 73.7497 181.367 73.0557 181.367 72.2691C181.367 71.4826 181.228 70.7423 180.997 70.1871C180.765 69.5856 180.395 69.123 179.979 68.7528C179.562 68.3827 179.053 68.1051 178.498 67.92C177.897 67.7349 177.295 67.6424 176.601 67.6424H173.918V76.8958Z" fill="white"/>
<path d="M185.115 66.3469H188.632C189.187 66.3469 189.696 66.3932 190.205 66.4857C190.714 66.5783 191.13 66.7633 191.546 67.0409C191.916 67.2723 192.24 67.6424 192.472 68.0588C192.703 68.4752 192.796 68.9841 192.796 69.5856C192.796 70.2334 192.657 70.7886 192.425 71.205C192.194 71.6214 191.87 71.9452 191.5 72.2229C191.13 72.5005 190.714 72.6393 190.251 72.7318C189.788 72.8243 189.372 72.8706 188.955 72.8706H186.596V78.1913H185.208V66.3469H185.115ZM186.503 71.5751H188.863C189.557 71.5751 190.158 71.4363 190.575 71.1124C191.037 70.7886 191.222 70.2796 191.222 69.6319C191.222 68.9842 190.991 68.4752 190.575 68.1513C190.112 67.8275 189.557 67.6887 188.863 67.6887H186.503V71.5751Z" fill="white"/>
<path d="M197.606 66.3469H198.948L203.991 78.1913H202.372L201.169 75.2765H195.247L194.044 78.1913H192.471L197.606 66.3469ZM198.254 68.1513L195.756 73.981H200.567L198.254 68.1513Z" fill="white"/>
<path d="M213.8 68.7991C213.43 68.3364 213.014 67.9663 212.459 67.7349C211.903 67.5036 211.394 67.3648 210.839 67.3648C210.191 67.3648 209.59 67.5036 209.035 67.7812C208.48 68.0588 208.017 68.429 207.6 68.8454C207.184 69.308 206.906 69.817 206.675 70.4184C206.444 71.0199 206.351 71.6214 206.351 72.2691C206.351 72.9631 206.444 73.6109 206.675 74.2123C206.906 74.8138 207.184 75.3228 207.6 75.7854C208.017 76.2481 208.48 76.572 209.035 76.8496C209.59 77.1272 210.191 77.2197 210.885 77.2197C211.626 77.2197 212.273 77.0809 212.829 76.8033C213.384 76.5257 213.893 76.1093 214.309 75.5541L215.373 76.4332C214.818 77.1272 214.217 77.6824 213.43 78.0062C212.69 78.3301 211.811 78.5152 210.885 78.5152C210.053 78.5152 209.266 78.3764 208.526 78.0525C207.786 77.7286 207.138 77.3122 206.629 76.757C206.12 76.2018 205.657 75.5541 205.38 74.8138C205.102 74.0735 204.917 73.2407 204.917 72.3154C204.917 71.4363 205.056 70.6498 205.38 69.8632C205.657 69.123 206.074 68.429 206.629 67.8737C207.184 67.3185 207.786 66.8559 208.526 66.532C209.266 66.2081 210.053 66.0693 210.932 66.0693C211.718 66.0693 212.505 66.2081 213.245 66.4857C213.985 66.7633 214.587 67.226 215.096 67.92L213.8 68.7991Z" fill="white"/>
<path d="M217.271 66.3469H218.659V71.4363H218.844L224.211 66.3469H226.246L220.417 71.7602L226.524 78.1913H224.488L218.844 72.1766H218.659V78.1913H217.271V66.3469Z" fill="white"/>
<path d="M233.417 68.429C233.186 68.0588 232.862 67.7812 232.492 67.5962C232.122 67.4111 231.705 67.3185 231.289 67.3185C230.965 67.3185 230.687 67.3648 230.363 67.4573C230.04 67.5499 229.808 67.6424 229.531 67.8275C229.299 67.9663 229.114 68.1976 228.975 68.429C228.837 68.7066 228.744 68.9842 228.744 69.3543C228.744 69.6319 228.79 69.8632 228.883 70.0483C228.975 70.2334 229.114 70.4184 229.299 70.6035C229.484 70.7886 229.762 70.9274 230.086 71.0662C230.41 71.205 230.826 71.3438 231.289 71.4826C231.751 71.6214 232.168 71.8065 232.631 71.9453C233.047 72.1303 233.417 72.3154 233.787 72.593C234.111 72.8706 234.389 73.1482 234.574 73.5646C234.759 73.981 234.851 74.4437 234.851 74.9989C234.851 75.6004 234.713 76.1093 234.481 76.5257C234.25 76.9421 233.926 77.3122 233.556 77.5898C233.186 77.8674 232.723 78.0988 232.214 78.2376C231.705 78.3764 231.196 78.4689 230.641 78.4689C230.317 78.4689 229.947 78.4226 229.623 78.3764C229.299 78.3301 228.929 78.2376 228.652 78.0988C228.328 77.96 228.05 77.8212 227.772 77.5898C227.495 77.4048 227.264 77.1272 227.032 76.8496L228.235 75.878C228.513 76.2944 228.837 76.6182 229.299 76.8496C229.762 77.0809 230.225 77.1734 230.734 77.1734C231.057 77.1734 231.335 77.1272 231.659 77.0346C231.983 76.9421 232.26 76.8033 232.492 76.6645C232.723 76.4794 232.954 76.2944 233.093 76.0168C233.232 75.7392 233.325 75.4615 233.325 75.1377C233.325 74.7675 233.278 74.4899 233.139 74.2586C233.001 74.0273 232.816 73.8422 232.584 73.6571C232.307 73.4721 231.983 73.3333 231.613 73.1945C231.243 73.0557 230.78 72.9169 230.225 72.7318C229.808 72.593 229.392 72.4542 229.068 72.2691C228.698 72.0841 228.42 71.899 228.143 71.6214C227.865 71.39 227.68 71.0662 227.541 70.7423C227.402 70.3722 227.31 69.9558 227.31 69.4931C227.31 68.9379 227.402 68.429 227.634 68.0126C227.865 67.5961 228.143 67.226 228.513 66.9484C228.883 66.6708 229.299 66.4395 229.808 66.3007C230.317 66.1619 230.78 66.0693 231.289 66.0693C231.937 66.0693 232.584 66.1619 233.139 66.3932C233.695 66.6245 234.204 66.9484 234.62 67.4573L233.417 68.429Z" fill="white"/>
<path d="M13.8339 71.9915V87.9999L0 79.9957V63.9873L13.8339 71.9915Z" fill="#9D8933"/>
<path d="M13.834 87.9999L27.7141 79.9957V63.9873L13.834 71.9915V87.9999Z" fill="#F2CE2E"/>
<path d="M13.8339 55.9832L0 63.9874L13.8339 71.9916L27.714 63.9874L13.8339 55.9832Z" fill="#A2909A"/>
<path d="M48.4879 35.9959L34.654 27.9917L0 47.9791L13.8339 55.9833L48.4879 35.9959Z" fill="#38499B"/>
<path d="M13.834 55.9832V71.9916L48.488 52.0043V35.9958L13.834 55.9832Z" fill="#465CA9"/>
<path d="M0 47.979V63.9874L13.8339 71.9916V55.9832L0 47.979Z" fill="#252F66"/>
<path d="M0 8.00421L13.8339 0L48.4879 19.9874L34.654 27.9916L0 8.00421Z" fill="url(#paint0_linear)"/>
<path d="M34.6541 27.9915V43.9999L0 24.0126V8.00415L34.6541 27.9915Z" fill="#2D748D"/>
<path d="M48.4882 19.9873V35.9957L34.6543 43.9999V27.9915L48.4882 19.9873Z" fill="url(#paint1_linear)"/>
<path d="M4.76562 45.2493L20.774 35.9958L34.6542 44.0001L4.76562 45.2493Z" fill="url(#paint2_linear)"/>
</g>
<defs>
<linearGradient id="paint0_linear" x1="20.7835" y1="19.9982" x2="27.7111" y2="7.99926" gradientUnits="userSpaceOnUse">
<stop stop-color="#59B8DA"/>
<stop offset="1" stop-color="#4999B6"/>
</linearGradient>
<linearGradient id="paint1_linear" x1="34.6388" y1="43.9959" x2="48.494" y2="19.9981" gradientUnits="userSpaceOnUse">
<stop stop-color="#59B8DA"/>
<stop offset="1" stop-color="#4999B6"/>
</linearGradient>
<linearGradient id="paint2_linear" x1="11.9266" y1="52.3967" x2="27.4827" y2="36.8406" gradientUnits="userSpaceOnUse">
<stop stop-color="#293771"/>
<stop offset="0.6546" stop-color="#283775"/>
<stop offset="1" stop-color="#195093"/>
</linearGradient>
<clipPath id="clip0">
<rect width="245.401" height="88" fill="white"/>
</clipPath>
</defs>
</svg>
