<svg width="56" height="55" viewBox="0 0 56 55" fill="none" xmlns="http://www.w3.org/2000/svg">
<path d="M50.6287 3.23976C49.8849 5.05232 48.8549 6.80825 47.6533 8.39424C37.0107 -2.53779 19.4446 -2.821 8.45864 7.71453C-2.52732 18.2501 -2.87063 35.6393 7.77202 46.5147C8.11533 46.9112 8.51586 47.2511 8.91639 47.5909L9.94632 48.4972C21.6189 58.2398 39.1278 56.767 48.9694 45.212C52.7458 40.7938 55.0345 35.2428 55.4351 29.4653C56.2361 22.6115 54.119 13.7753 50.6287 3.23976ZM12.9217 47.8742C12.1206 48.8937 10.6329 49.007 9.60301 48.214C8.57307 47.421 8.45864 45.9483 9.2597 44.9287C10.0608 43.9092 11.5484 43.7959 12.5784 44.5889C13.5511 45.3819 13.7227 46.8546 12.9217 47.8742ZM50.457 39.661C43.648 48.6671 29.0001 45.6084 19.6735 46.0616C19.6735 46.0616 18.0141 46.1749 16.3548 46.4014C16.3548 46.4014 16.9842 46.1182 17.7853 45.835C24.3654 43.5693 27.4552 43.1162 31.4605 41.077C38.9561 37.282 46.4518 28.9555 47.9394 20.3458C45.0785 28.6157 36.3813 35.7526 28.4851 38.6414C23.0494 40.6239 13.265 42.5497 13.265 42.5497L12.8645 42.3232C6.22711 39.0945 5.99824 24.8206 18.1286 20.2326C23.4499 18.1934 28.4851 19.3263 34.2642 17.9668C40.3866 16.5508 47.4817 12.0194 50.3426 6.07189C53.5468 15.6445 57.4377 30.4849 50.457 39.661Z" fill="#6DB33F"/>
<path d="M50.457 39.661C43.648 48.6672 29 45.6085 19.6734 46.0616C19.6734 46.0616 18.0141 46.1749 16.3547 46.4015C16.3547 46.4015 16.9841 46.1182 17.7852 45.835C24.3653 43.5693 27.4551 43.1162 31.4604 41.077C38.9561 37.282 46.4517 28.9555 47.9394 20.3458C45.0785 28.6157 36.3812 35.7526 28.4851 38.6414C23.0493 40.6239 13.2649 42.5498 13.2649 42.5498L12.8644 42.3232C6.22706 39.0946 5.99818 24.8206 18.1285 20.2326C23.4498 18.1934 28.4851 19.3263 34.2641 17.9669C40.3865 16.5508 47.4816 12.0194 50.3426 6.0719C53.5468 15.6445 57.4377 30.4849 50.457 39.661Z" fill="white"/>
</svg>
