<svg width="93" height="93" viewBox="0 0 93 93" fill="none" xmlns="http://www.w3.org/2000/svg">
<path fill-rule="evenodd" clip-rule="evenodd" d="M38.4261 41.3046V42.1969V41.3046ZM61.9846 70.2515L62.761 70.043L62.8537 70.6455C63.294 73.4151 63.097 75.8138 61.973 78.2589C63.7112 78.5022 65.2292 79.3366 66.0288 81.1095C66.5966 82.361 67.1412 83.8211 67.1528 85.2117C67.1528 86.243 66.8284 87.2744 66.0172 87.9465C65.5372 88.3416 64.9354 88.5586 64.3138 88.5607H55.2403C54.7188 89.986 53.6875 91.2954 52.1811 91.6894C51.7586 91.7871 51.328 91.8453 50.8948 91.8632C50.4313 91.8864 49.9793 91.898 49.5274 91.898C48.357 91.9096 47.1866 91.898 46.0162 91.898C44.1853 91.8748 42.3544 91.8401 40.5235 91.7937C39.9791 91.7818 39.4488 91.6182 38.9923 91.3214C38.5358 91.0245 38.1711 90.6062 37.9394 90.1134C37.7094 90.6052 37.3468 91.023 36.8923 91.3198C36.4378 91.6167 35.9095 91.7808 35.3668 91.7937C33.5243 91.8401 31.6934 91.8748 29.8625 91.898C28.6921 91.9096 27.5217 91.9212 26.3513 91.898C25.8994 91.898 25.4474 91.8864 24.9839 91.8632C24.5463 91.8518 24.1112 91.7935 23.6861 91.6894C22.1796 91.2954 21.1599 89.9744 20.6268 88.5607H11.6345C11.0128 88.5586 10.411 88.3416 9.93105 87.9465C9.11988 87.2744 8.79542 86.243 8.79542 85.2117C8.79542 83.8211 9.35164 82.3611 9.90787 81.1095C10.2112 80.4314 10.6721 79.8355 11.2521 79.3713C12.0151 78.7743 12.9228 78.3905 13.8826 78.2589C12.7585 75.8138 12.5615 73.4151 13.0019 70.6455L13.0946 70.0429L13.9637 70.2747C14.0687 69.7486 14.2081 69.2299 14.3809 68.7219C14.9825 66.8904 16.0964 65.2698 17.5907 64.0519C18.1276 63.6223 18.7153 63.2604 19.3405 62.9742C19.4279 61.3137 19.6488 59.6629 20.0011 58.0377C20.3248 55.8375 20.9731 53.6975 21.9247 51.6875C21.4538 51.1178 21.0567 50.4909 20.7427 49.8218C20.6963 49.7175 20.65 49.6132 20.6152 49.5089C17.6693 47.8381 15.0632 45.629 12.9324 42.9965C11.6577 41.4321 9.79199 38.9986 9.62976 36.9475C9.54864 36.229 9.52547 35.5106 9.51388 34.8037C9.49062 33.0805 9.58354 31.3577 9.79199 29.647C9.90787 28.6504 10.0701 27.6539 10.2671 26.6689C8.94238 25.1462 7.7883 23.483 6.82546 21.7092C5.3089 18.924 4.33377 15.8767 3.95163 12.7285C3.58821 9.60627 3.82819 6.44331 4.6585 3.41168C4.86378 2.67197 5.3058 2.01991 5.91691 1.5553C6.52801 1.09069 7.27453 0.839137 8.0422 0.839137C13.9753 0.839137 19.0972 3.26104 23.8599 6.38982C28.2472 3.70166 33.2923 2.27895 38.4376 2.27895C43.583 2.27895 48.6281 3.70166 53.0154 6.38982C57.7665 3.26104 62.8884 0.839137 68.8215 0.839137C69.5903 0.836165 70.3383 1.08821 70.9485 1.55582C71.5587 2.02343 71.9966 2.68019 72.1936 3.42327C73.0136 6.45677 73.2495 9.61847 72.8889 12.7401C72.5068 15.8883 71.5316 18.9356 70.0151 21.7208C69.0563 23.4943 67.9061 25.1575 66.585 26.6805C66.7704 27.6191 66.9211 28.5577 67.0485 29.5196C67.2666 31.2605 67.3634 33.0145 67.3382 34.7689C67.3267 35.499 67.3035 36.229 67.2224 36.9359C67.037 39.0449 65.2292 41.4089 63.9198 43.008C61.7858 45.6375 59.1803 47.846 56.2369 49.5205C56.1905 49.6248 56.1442 49.7291 56.0978 49.8334C55.851 50.3538 55.5764 50.8606 55.2751 51.3514C55.0044 51.7981 54.6858 52.2139 54.3249 52.5914C54.5702 53.1556 54.7868 53.7318 54.9738 54.318C55.376 55.562 55.6745 56.8372 55.8661 58.1304C56.0051 58.791 56.1326 59.4631 56.2253 60.1236C58.8558 55.7201 62.3554 51.7454 66.7589 49.3004C69.343 47.8634 72.2748 46.948 75.2529 47.0291C78.4164 47.1102 81.522 48.5819 83.9207 50.5982C86.5512 52.8115 88.695 55.9751 89.0542 59.4631C89.114 60.0372 89.0748 60.6173 88.9384 61.1781C88.4864 63.0438 87.0495 64.5039 85.3461 65.3034C83.1675 66.3232 80.4443 66.2884 78.6134 64.5618C77.5821 63.5768 77.2576 62.4991 76.7362 61.236C76.4233 60.4944 76.0988 59.9266 75.4383 59.4283C74.5631 58.7626 73.476 58.4373 72.379 58.5128C70.8147 58.6171 69.4241 59.5094 68.3232 60.5755C67.7048 61.1803 67.1242 61.8227 66.585 62.4991C65.5446 63.7856 64.6033 65.1492 63.7691 66.5781C63.1174 67.6596 62.5442 68.7865 62.0541 69.9502C62.028 70.0181 61.997 70.0839 61.9614 70.1472C61.9647 70.1828 61.9725 70.2179 61.9846 70.2515H61.9846ZM64.3833 60.3785C64.5266 60.3751 64.6689 60.4028 64.8004 60.4596C65.3335 59.8339 65.8897 59.2197 66.4691 58.6519C66.6545 58.4781 66.84 58.3043 67.0138 58.1536C66.2935 57.6602 65.6983 57.0055 65.2756 56.2416C64.8967 55.591 64.6413 54.876 64.5223 54.1326C63.3359 55.1708 62.2425 56.3108 61.2545 57.5395C61.1966 58.339 61.9846 59.2661 62.5292 59.6948C63.0391 60.1004 63.7112 60.4133 64.3833 60.3785V60.3785ZM63.5605 62.0356C62.7982 61.8803 62.0834 61.5468 61.4747 61.0622C60.8474 60.5728 60.3302 59.9569 59.9566 59.2545C58.9191 60.7346 57.9897 62.2875 57.1755 63.9013C57.47 64.0798 57.7525 64.2772 58.0214 64.4923C58.9757 65.2515 59.7644 66.1979 60.3391 67.2734C61.2621 65.4391 62.3399 63.6869 63.5605 62.0356V62.0356ZM77.7211 57.5395C77.7215 57.6439 77.6977 57.747 77.6516 57.8407C79.413 59.5674 79.3319 61.5837 80.4327 62.6266C82.3679 64.4691 86.6671 62.3948 86.4006 59.7412C86.1572 57.4352 84.8246 55.1407 82.9705 53.333C82.9589 53.3214 82.9473 53.3098 82.9357 53.3098C82.6686 53.0621 82.315 52.929 81.9508 52.939C79.61 52.8347 77.8022 55.2914 77.7211 57.5395ZM76.0756 56.6935C76.1692 56.1107 76.3366 55.5422 76.5739 55.0017C77.3271 53.2866 78.7409 51.8845 80.4675 51.3862C78.7988 50.3665 76.9563 49.7407 75.1833 49.6943C74.6686 49.6773 74.1533 49.7005 73.6421 49.7639C73.4799 49.8797 73.3292 49.9956 73.2481 50.0652C73.1537 50.1441 73.0647 50.2293 72.9816 50.3201C71.8112 51.6411 71.9503 54.1905 72.9584 55.5579C73.0208 55.6459 73.0679 55.7439 73.0975 55.8476C74.1398 55.9103 75.156 56.199 76.0756 56.6935ZM71.1739 55.9867C70.6947 55.0702 70.4367 54.0542 70.4206 53.0201C70.3921 52.1012 70.5661 51.1873 70.9305 50.3433C69.9348 50.6773 68.9727 51.1041 68.0567 51.618C67.5121 51.9193 66.9674 52.2669 66.4228 52.6377C66.4228 52.6493 66.4112 52.6493 66.4112 52.6609C65.9129 53.3909 66.388 54.6888 66.782 55.3725C67.1412 55.9866 67.6975 56.624 68.3464 56.9021C68.4236 56.9306 68.4944 56.9739 68.555 57.0296C69.3641 56.5392 70.2491 56.1867 71.1739 55.9866L71.1739 55.9867ZM35.8883 8.35978C36.051 8.35978 36.2101 8.40803 36.3454 8.49844C36.4807 8.58885 36.5861 8.71734 36.6484 8.86768C36.7107 9.01802 36.727 9.18345 36.6952 9.34305C36.6635 9.50264 36.5851 9.64924 36.47 9.76431C36.355 9.87937 36.2084 9.95773 36.0488 9.98948C35.8892 10.0212 35.7238 10.0049 35.5734 9.94266C35.4231 9.88038 35.2946 9.77493 35.2042 9.63963C35.1138 9.50433 35.0655 9.34526 35.0655 9.18253C35.064 9.07406 35.0842 8.96638 35.125 8.86587C35.1658 8.76535 35.2264 8.67404 35.3031 8.59734C35.3798 8.52063 35.4711 8.46008 35.5716 8.41928C35.6721 8.37848 35.7798 8.35824 35.8883 8.35978ZM35.8883 11.9868C36.051 11.9868 36.2101 12.0351 36.3454 12.1255C36.4807 12.2159 36.5861 12.3444 36.6484 12.4947C36.7107 12.6451 36.727 12.8105 36.6952 12.9701C36.6635 13.1297 36.5851 13.2763 36.47 13.3914C36.355 13.5064 36.2084 13.5848 36.0488 13.6165C35.8892 13.6483 35.7238 13.632 35.5734 13.5697C35.4231 13.5074 35.2946 13.402 35.2042 13.2667C35.1138 13.1314 35.0655 12.9723 35.0655 12.8096C35.0664 12.5916 35.1533 12.3829 35.3074 12.2287C35.4615 12.0746 35.6703 11.9877 35.8883 11.9868ZM40.9754 8.35978C41.1381 8.35978 41.2972 8.40803 41.4325 8.49844C41.5678 8.58885 41.6733 8.71734 41.7355 8.86768C41.7978 9.01802 41.8141 9.18345 41.7824 9.34305C41.7506 9.50264 41.6723 9.64924 41.5572 9.76431C41.4421 9.87937 41.2955 9.95773 41.1359 9.98948C40.9763 10.0212 40.8109 10.0049 40.6606 9.94266C40.5102 9.88038 40.3817 9.77493 40.2913 9.63963C40.2009 9.50433 40.1527 9.34526 40.1527 9.18253C40.1535 8.96458 40.2405 8.7558 40.3946 8.60168C40.5487 8.44757 40.7575 8.36062 40.9754 8.35978ZM40.9754 11.9868C41.1381 11.9868 41.2972 12.0351 41.4325 12.1255C41.5678 12.2159 41.6733 12.3444 41.7355 12.4947C41.7978 12.6451 41.8141 12.8105 41.7824 12.9701C41.7506 13.1297 41.6723 13.2763 41.5572 13.3914C41.4421 13.5064 41.2955 13.5848 41.1359 13.6165C40.9763 13.6483 40.8109 13.632 40.6606 13.5697C40.5102 13.5074 40.3817 13.402 40.2913 13.2667C40.2009 13.1314 40.1527 12.9723 40.1527 12.8096C40.1535 12.5916 40.2405 12.3829 40.3946 12.2287C40.5487 12.0746 40.7575 11.9877 40.9754 11.9868ZM39.1213 5.65976V15.498C44.3823 15.6139 49.5506 17.074 52.7257 19.8667C56.3875 23.0998 58.8326 28.6968 58.5661 31.6402C58.3343 34.2822 54.1163 36.0668 48.4961 36.9938C48.7796 37.4979 48.9755 38.0465 49.0755 38.6162C49.2049 39.4186 49.201 40.2369 49.0639 41.0381C51.1845 40.7947 53.0965 40.4703 54.8 40.111C57.8233 39.4683 60.7883 38.5769 63.6648 37.4458C63.7659 37.1852 63.8321 36.9125 63.8618 36.6346C63.8618 36.6346 65.0786 25.5564 58.7978 16.483C53.9424 9.47223 46.5609 5.86834 39.1213 5.65976V5.65976ZM37.7424 15.498V5.65976C30.1754 5.87994 22.6779 9.5997 17.8573 16.8075C11.8315 25.823 13.0135 36.6462 13.0135 36.6462C13.0564 36.9327 13.1343 37.2129 13.2452 37.4805C16.1085 38.5981 19.0577 39.4817 22.0637 40.1226C23.7788 40.4818 25.6792 40.8063 27.8114 41.0497C27.6742 40.2485 27.6703 39.4302 27.7998 38.6278C27.8998 38.0581 28.0957 37.5095 28.3792 37.0054C22.759 36.0784 18.541 34.2822 18.3092 31.6517C18.0427 28.7084 20.4878 23.1114 24.1496 19.8783C27.3131 17.074 32.4814 15.6139 37.7424 15.498V15.498ZM28.2633 42.4866C26.0877 42.2608 23.9254 41.9204 21.7856 41.4668C19.2123 40.9207 16.6801 40.1966 14.207 39.2999C14.59 39.8855 15.0038 40.4502 15.447 40.9917C18.4946 44.7231 22.3303 47.2609 26.9307 48.8484C28.398 49.3463 29.896 49.7489 31.4153 50.0536C31.4153 50.042 31.4037 50.0188 31.4037 50.0072C31.2524 49.6044 31.2084 49.1691 31.2762 48.7441C31.4616 47.678 32.2612 47.0059 33.2925 46.5772C31.3458 45.9166 29.596 44.8158 28.5762 43.066C28.4522 42.8842 28.3473 42.69 28.2633 42.4866ZM33.1998 49.3235C33.42 49.8913 34.1501 50.3317 35.0655 50.633C36.178 50.7604 37.302 50.8647 38.426 50.9343C39.5617 50.8647 40.6973 50.772 41.8098 50.633C42.6673 50.3549 43.3626 49.9609 43.6291 49.4394C44.7879 47.1913 32.4119 47.2493 33.1998 49.3235H33.1998ZM62.6451 39.3115C60.1785 40.2008 57.6542 40.921 55.0897 41.4668C52.9497 41.9195 50.7875 42.2599 48.6119 42.4866C48.5192 42.6836 48.4265 42.869 48.3222 43.0544C47.3025 44.7926 45.5643 45.9051 43.6175 46.5656C44.6257 46.9943 45.4021 47.6549 45.599 48.6862C45.6854 49.1411 45.6412 49.6111 45.4716 50.042C49.2145 49.2888 52.7373 48.0257 55.8661 45.9862C58.1257 44.5145 59.9682 42.5909 61.6948 40.5166C62.0309 40.1342 62.3438 39.717 62.6451 39.3115ZM37.9278 42.9153C37.4063 43.8308 36.3286 45.1982 34.0574 44.7347C31.2646 43.8308 29.2599 41.9535 29.7582 38.9522C30.2101 36.2406 34.7179 34.5488 38.4145 34.5835H38.4492C42.1458 34.5488 46.6536 36.2406 47.0939 38.9522C47.5227 41.5479 46.0857 43.3093 43.8724 44.3175C40.593 45.5342 39.4458 43.9467 38.9359 42.9385C38.6926 42.4518 38.5883 42.1969 38.4608 42.1853H38.4261C38.3218 42.2316 38.1943 42.4634 37.9278 42.9153V42.9153ZM38.4261 35.8466C36.1896 35.8466 33.478 36.4956 33.2114 37.8861C32.7711 40.1921 36.1896 41.3046 38.4261 41.3046H38.4724C40.7089 41.293 44.0926 40.1806 43.6523 37.8861C43.3857 36.4956 40.6741 35.8466 38.4376 35.8466H38.4261ZM32.1917 31.3273C32.1914 31.5484 32.1034 31.7603 31.9469 31.9166C31.7905 32.0728 31.5784 32.1606 31.3573 32.1606C31.1362 32.1606 30.9242 32.0728 30.7677 31.9166C30.6113 31.7603 30.5233 31.5484 30.523 31.3273C30.5341 30.4292 30.2214 29.5571 29.6423 28.8706C29.3963 28.5763 29.0901 28.3382 28.7443 28.1723C28.3984 28.0063 28.0211 27.9165 27.6376 27.9088C27.1237 27.9092 26.6222 28.0669 26.2007 28.3607C25.7256 28.6905 25.3491 29.1431 25.1114 29.6702C25.0176 29.8684 24.849 30.0213 24.6426 30.0952C24.4361 30.1691 24.2088 30.1579 24.0105 30.0642C23.8123 29.9705 23.6594 29.8018 23.5855 29.5954C23.5116 29.3889 23.5228 29.1616 23.6165 28.9633C23.9876 28.1702 24.5587 27.4873 25.2736 26.9818C25.9718 26.4991 26.8004 26.2404 27.6492 26.2401C28.2685 26.2447 28.8795 26.3839 29.4398 26.648C30 26.9122 30.4961 27.2949 30.8938 27.7698C31.7366 28.763 32.1969 30.0247 32.1917 31.3273L32.1917 31.3273ZM44.672 31.3273C44.672 31.5486 44.7599 31.7608 44.9164 31.9173C45.0728 32.0737 45.2851 32.1616 45.5063 32.1616C45.7276 32.1616 45.9398 32.0737 46.0963 31.9173C46.2528 31.7608 46.3407 31.5486 46.3407 31.3273C46.3296 30.4292 46.6423 29.5571 47.2214 28.8706C47.4665 28.5754 47.7726 28.3366 48.1186 28.1706C48.4646 28.0046 48.8424 27.9153 49.2261 27.9088C49.74 27.9092 50.2414 28.0669 50.663 28.3607C51.1381 28.6905 51.5146 29.1431 51.7523 29.6702C51.8473 29.8679 52.0165 30.0201 52.2232 30.0937C52.4298 30.1672 52.6572 30.1562 52.8557 30.0631C53.0543 29.9699 53.208 29.8021 53.2835 29.5961C53.359 29.3902 53.3501 29.1627 53.2588 28.9633C52.8877 28.1702 52.3166 27.4873 51.6017 26.9818C50.9035 26.4991 50.0749 26.2404 49.2261 26.2401C48.6068 26.2447 47.9958 26.3839 47.4355 26.648C46.8753 26.9122 46.3791 27.2949 45.9815 27.7698C45.1304 28.759 44.6654 30.0224 44.672 31.3273L44.672 31.3273ZM45.3441 53.5068C43.5702 54.0738 41.7332 54.4202 39.8746 54.5382C35.5953 54.7922 31.3299 53.8492 27.5565 51.815C26.8264 51.6064 26.1195 51.363 25.4127 51.1081C27.1507 53.4467 29.5659 55.1944 32.3307 56.1141C29.5148 55.639 26.6642 54.7699 24.4625 53.2403C23.0371 56.3227 22.168 60.6103 22.8633 66.4622C23.0255 67.7949 23.2341 69.058 23.4891 70.2515C27.1972 68.5713 29.793 69.2434 33.0144 71.3872C33.3853 66.3 34.4514 62.476 34.9612 60.9116C35.1814 60.2511 35.4711 59.9266 35.8651 59.8918C36.2823 59.8571 36.9891 59.8802 36.966 61.1086C36.8385 61.6069 36.7342 62.1979 36.6531 62.6266C36.4329 63.7622 36.2591 64.921 36.0853 66.0683C35.923 67.2039 35.7608 68.3395 35.6217 69.4867C35.529 70.2168 35.4363 70.97 35.3784 71.7116C35.3552 72.1288 35.332 72.546 35.3204 72.9631C37.0648 73.1717 38.8284 73.16 40.5698 72.9284C40.5582 72.5228 40.5351 72.1056 40.5119 71.7001C40.3844 69.8691 40.1063 67.9455 39.8398 66.1262C39.6776 65.0369 39.5037 63.9361 39.2951 62.8584C39.1677 62.2442 39.0286 61.4678 38.8084 60.8768C38.8432 59.6601 40.4308 59.3936 40.8711 60.7378C41.3578 62.1979 42.5166 66.1494 42.8874 71.5146C45.796 69.846 49.6433 68.606 52.4244 70.1588C52.6678 68.9884 52.8647 67.7601 53.027 66.4622C53.6759 61.0506 52.9806 56.9716 51.7407 53.9588C49.5158 55.2682 46.6883 55.9635 43.9651 56.3111C46.9772 55.4536 49.6213 53.6244 51.4858 51.1081C50.7789 51.363 50.0605 51.6064 49.342 51.815C48.0689 52.5104 46.7297 53.0771 45.3441 53.5068ZM12.9903 5.01083C15.9221 5.79882 18.68 7.22415 21.2989 8.88124C20.2294 9.73917 19.2261 10.6766 18.2976 11.6856C17.7993 10.8628 17.2547 10.0632 16.6869 9.27524C15.5991 7.73472 14.3608 6.30622 12.9903 5.01083ZM8.11173 4.32714H8.38984C11.6808 6.13487 14.6242 9.80829 16.7912 13.4585C16.3508 14.0263 15.9221 14.6173 15.5049 15.2199C13.9114 17.6199 12.6668 20.234 11.8083 22.9839C9.15465 19.4148 5.78253 12.8559 8.01902 4.39667C8.05378 4.38508 8.07696 4.35032 8.11173 4.32714ZM68.752 4.32714H68.4739C65.1828 6.13487 62.2395 9.80829 60.0725 13.4585C60.4317 13.9105 60.7794 14.3856 61.1039 14.8723C62.8155 17.368 64.1435 20.1062 65.0438 22.9955C67.6975 19.4264 71.0696 12.8675 68.8331 4.40826L68.752 4.32714ZM63.8734 5.01083C60.9416 5.79882 58.1721 7.22415 55.5648 8.88124C56.6345 9.74321 57.6377 10.6845 58.5661 11.6971C59.076 10.8744 59.609 10.0632 60.1768 9.27524C61.2646 7.73472 62.5029 6.30622 63.8734 5.01083ZM24.0685 72.7777C24.8535 75.7843 25.977 78.6922 27.4174 81.4456C27.6144 81.8164 27.7535 81.9207 28.1243 82.1409C29.2715 82.8362 30.8822 83.5894 31.1604 86.4516C29.8509 84.7829 28.5994 83.5894 26.6758 83.1722C25.7371 83.1606 24.671 83.346 23.9294 84.1108C22.3418 85.7563 23.4891 88.5954 24.4509 88.8504C25.4127 89.1053 35.2857 88.8504 35.2857 88.8504C35.2857 88.8504 35.6913 87.0079 34.9265 85.9881C34.1732 84.9568 33.0028 79.7074 32.9217 74.1219C30.6041 72.094 27.0234 70.7267 24.0685 72.7777ZM51.7987 72.7777C51.0113 75.7819 49.8919 78.6891 48.4613 81.4456C48.2527 81.8164 48.1137 81.9207 47.7544 82.1409C46.6072 82.8362 44.9965 83.5894 44.7184 86.4516C46.0278 84.7829 47.2793 83.5894 49.2029 83.1722C50.1416 83.1606 51.2193 83.346 51.9493 84.1108C53.5369 85.7563 52.3897 88.5954 51.4278 88.8504C50.466 89.1053 40.593 88.8504 40.593 88.8504C40.593 88.8504 40.1874 87.0079 40.9523 85.9881C41.7055 84.9568 42.8875 79.7074 42.9686 74.1219C45.263 72.094 48.8437 70.7267 51.7987 72.7777H51.7987ZM38.8316 85.1885C38.5419 85.1885 38.2406 85.2001 37.9394 85.2001H37.2325C37.1239 84.9928 37.004 84.7916 36.8733 84.5975C36.7223 84.2602 36.5983 83.9115 36.5024 83.5546C36.2221 82.5637 35.9978 81.5578 35.8303 80.5417C35.5129 78.6608 35.3347 76.7591 35.2973 74.852C37.1013 75.1031 38.9325 75.0875 40.7321 74.8056C40.7019 77.0195 40.4731 79.2262 40.0484 81.3992C39.8977 82.164 39.5153 84.0181 39.1213 84.7018C39.0163 84.8589 38.9196 85.0213 38.8316 85.1885ZM60.4086 73.2412C60.4897 78.5833 57.1176 80.6924 55.1476 82.2683C64.1168 78.1893 65.1481 85.1306 64.221 85.8954H54.939C54.9044 84.7929 54.5078 83.7325 53.8103 82.8779C53.1129 82.0234 52.1534 81.4223 51.0802 81.1675C51.7893 79.674 52.3933 78.1329 52.8879 76.5554C55.5068 75.1533 58.5893 73.7164 60.4086 73.2412ZM55.5068 65.3961C57.7549 66.4391 59.1687 68.8146 59.4815 71.4799C57.6622 72.0129 55.6691 72.9631 53.9888 73.7975C54.6152 71.4808 55.076 69.1225 55.3678 66.7404C55.4257 66.3116 55.4721 65.8597 55.5068 65.3961H55.5068ZM20.3603 65.4425C18.147 66.5086 16.768 68.8726 16.4667 71.5146C18.2629 72.0593 20.2096 72.9863 21.8667 73.8091C21.2404 71.4924 20.7795 69.134 20.4878 66.7519C20.4414 66.3232 20.3951 65.8828 20.3603 65.4425ZM15.447 73.2412C15.3658 78.5833 18.738 80.6924 20.7195 82.2683C11.7388 78.1893 10.719 85.1306 11.6345 85.8954H20.7543C20.7964 84.6111 21.3076 83.3867 22.1912 82.4538C22.8404 81.7902 23.6511 81.307 24.5436 81.0516C24.3582 80.6692 24.1843 80.2868 24.0105 79.8928C23.5122 78.7456 23.0603 77.5752 22.6547 76.3816C20.1169 75.049 17.2083 73.7048 15.447 73.2412H15.447Z" fill="white"/>
</svg>
