<svg width="160" height="21" viewBox="0 0 160 21" fill="none" xmlns="http://www.w3.org/2000/svg">
<path d="M10.9607 10.7296C10.3579 11.3034 9.64498 11.754 8.86325 12.0553C8.08152 12.3566 7.24659 12.5026 6.4069 12.4848C1.91221 12.4848 0 9.46269 0 6.39223C0 3.32177 2.03049 0.15944 6.4069 0.15944C7.23147 0.157605 8.04819 0.316528 8.80963 0.626976C9.57107 0.937425 10.2621 1.39321 10.8424 1.96787L9.29 3.38463C8.50985 2.66665 7.47646 2.27323 6.4069 2.287C3.49915 2.287 2.24241 4.41456 2.26213 6.39223C2.28184 8.36989 3.40551 10.3911 6.4069 10.3911C7.52809 10.377 8.60224 9.9468 9.41321 9.18707L10.9607 10.7296Z" fill="white"/>
<path d="M16.057 0.396484V10.1543H22.252V12.2141H13.7998V0.396484H16.057Z" fill="white"/>
<path d="M37.0519 6.37287C37.0174 9.42882 35.0806 12.4848 30.8717 12.4848C26.6629 12.4848 24.6768 9.49652 24.6768 6.39221C24.6768 3.28791 26.7073 0.159424 30.8717 0.159424C35.0362 0.159424 37.0864 3.28307 37.0519 6.37287ZM26.9142 6.42606C26.9685 8.36021 28.033 10.4394 30.857 10.4394C33.6809 10.4394 34.7652 8.35054 34.7997 6.40672C34.8342 4.4629 33.6957 2.18544 30.857 2.18544C28.0182 2.18544 26.865 4.43389 26.9142 6.42606Z" fill="white"/>
<path d="M51.0088 0.415771V7.18529C51.0088 10.6764 48.8206 12.4655 45.7946 12.4655C42.9016 12.4655 40.4424 10.7441 40.4424 7.18529V0.415771H42.6947V7.18529C42.6947 9.31285 43.9366 10.4395 45.8094 10.4395C47.6822 10.4395 48.7664 9.2113 48.7664 7.18529V0.415771H51.0088Z" fill="white"/>
<path d="M65.5477 6.20376C65.6019 9.19202 63.7439 12.2141 59.5252 12.2141H54.7939V0.396484H59.5252C63.6552 0.396484 65.4984 3.2832 65.5477 6.20376ZM57.0511 10.0721H59.5153C62.2506 10.0721 63.3348 8.13791 63.2856 6.20376C63.2313 4.36149 62.1323 2.52405 59.5153 2.52405H57.0511V10.0721Z" fill="white"/>
<path d="M71.989 6.07807H78.9331V6.93877H71.989V12.2964H71.0625V0.449707H79.1746V1.36359H71.989V6.07807Z" fill="white"/>
<path d="M90.9776 8.50056C91.2984 8.25707 91.5584 7.94497 91.7378 7.58801C91.9171 7.23106 92.0111 6.83866 92.0126 6.44069C92.0126 4.89821 90.534 3.65552 88.6958 3.65552C86.8575 3.65552 85.3888 4.89821 85.374 6.44069C85.3775 6.8388 85.4729 7.23097 85.653 7.58773C85.8331 7.94449 86.0932 8.25658 86.4139 8.50056C86.8779 8.93038 87.2482 9.44813 87.5024 10.0224C87.7565 10.5968 87.8892 11.2157 87.8924 11.8418C87.9368 13.4085 87.8284 15.2266 87.7594 16.1453C86.9068 16.2613 86.3055 16.5418 86.3055 16.8706C86.3055 17.3058 87.37 17.8038 88.681 17.8038C89.9919 17.8038 91.0564 17.3203 91.0564 16.8706C91.0564 16.5418 90.4552 16.2613 89.6026 16.1453C89.5336 15.2217 89.4252 13.4085 89.4695 11.8418C89.4742 11.2132 89.6105 10.5923 89.8699 10.0175C90.1294 9.44278 90.5064 8.92645 90.9776 8.50056Z" fill="#1D1D1B"/>
<path d="M86.5174 12.4946C86.5174 12.4946 86.892 11.1117 85.2706 9.32259L85.2163 9.26456C84.6612 8.6219 84.3055 7.83653 84.1914 7.00156C84.0774 6.16659 84.2098 5.31705 84.5729 4.55365C84.936 3.79025 85.5146 3.14501 86.2401 2.69444C86.9656 2.24387 87.8076 2.00686 88.6662 2.01151H88.7697C89.6283 2.00686 90.4703 2.24387 91.1958 2.69444C91.9213 3.14501 92.4999 3.79025 92.863 4.55365C93.2262 5.31705 93.3585 6.16659 93.2445 7.00156C93.1304 7.83653 92.7747 8.6219 92.2196 9.26456L92.1654 9.31775C91.7436 9.73299 91.4149 10.23 91.2002 10.7771C90.9855 11.3241 90.8895 11.9091 90.9185 12.4946C92.204 12.0652 93.3216 11.2541 94.1164 10.1738C94.9111 9.09339 95.3437 7.79722 95.354 6.46489C95.35 4.80434 94.6972 3.2085 93.5301 2.00588C92.363 0.803259 90.7705 0.085374 89.0802 0L88.336 0C86.6531 0.0948113 85.0705 0.81602 83.9111 2.01649C82.7516 3.21696 82.1027 4.80622 82.0967 6.46005C82.1057 7.79127 82.5359 9.08688 83.3278 10.1679C84.1197 11.2489 85.2343 12.0619 86.5174 12.4946Z" fill="white"/>
<path d="M95.0088 17.6153C95.1358 17.5632 95.2679 17.5243 95.4031 17.4992C95.5522 17.4676 95.704 17.4498 95.8565 17.446V17.3203C95.845 17.2286 95.8201 17.1391 95.7826 17.0543L95.7333 16.9141C95.7333 16.8706 95.689 16.8271 95.6692 16.7932L95.6052 16.6772C95.4469 16.6541 95.2904 16.6202 95.137 16.5756C94.9929 16.5354 94.8514 16.487 94.7131 16.4306C94.4968 16.3523 94.2978 16.2341 94.1267 16.0824C94.072 16.0402 94.0286 15.9856 94.0003 15.9232C93.972 15.8609 93.9595 15.7927 93.964 15.7246C93.974 15.666 93.9995 15.611 94.038 15.5651C94.086 15.5107 94.1447 15.4663 94.2105 15.4345L94.0675 15.3571L93.9246 15.2798L93.7423 15.1976C93.624 15.1395 93.5057 15.0864 93.4071 15.0477L93.2494 14.9848C93.1268 15.0004 93.0034 15.0085 92.8798 15.009C92.7468 15.0162 92.6136 15.0162 92.4806 15.009C92.2291 14.9923 91.9799 14.9518 91.7364 14.8881C91.6315 14.8639 91.5292 14.8299 91.4308 14.7866C91.3511 14.7544 91.2751 14.7138 91.2041 14.6657C91.0809 14.5835 91.0021 14.4964 91.0021 14.4094L90.8246 14.3804L90.3318 14.3079C90.33 14.3385 90.33 14.3691 90.3318 14.3997L90.2924 14.5786C90.252 14.7533 90.2803 14.9366 90.3717 15.0917C90.463 15.2468 90.6108 15.3623 90.7852 15.4152C91.6773 15.6714 92.3525 16.0921 92.5447 16.6047C92.9389 17.6443 91.2879 18.6645 88.7744 18.6645C86.261 18.6645 84.61 17.6443 85.0042 16.6047C85.1915 16.1211 85.8371 15.6908 86.6996 15.4345C86.8826 15.3794 87.0379 15.2589 87.1346 15.0968C87.2314 14.9347 87.2625 14.7429 87.222 14.5593L87.1678 14.3079L86.8327 14.3514C86.6848 14.3514 86.5419 14.3901 86.4335 14.4094L86.2511 14.4384C86.247 14.4926 86.2291 14.545 86.1989 14.5906C86.1688 14.6363 86.1274 14.6737 86.0786 14.6995C86.0126 14.7485 85.9416 14.7906 85.8667 14.8252C85.7705 14.8667 85.6717 14.9023 85.571 14.9316C85.4543 14.9652 85.3358 14.9927 85.2162 15.0138C85.0875 15.038 84.9575 15.0541 84.8268 15.0622C84.5696 15.0888 84.3103 15.0888 84.0531 15.0622H84.0087L83.8953 15.1105L83.5651 15.2653C83.4469 15.3233 83.3384 15.3861 83.2497 15.4345L83.1512 15.4925H83.1117C83.1786 15.5157 83.2389 15.554 83.2878 15.6044C83.3366 15.6549 83.3725 15.7159 83.3927 15.7826C83.4058 15.8491 83.4014 15.9178 83.3798 15.9821C83.3583 16.0465 83.3203 16.1043 83.2695 16.1501C83.196 16.2207 83.1169 16.2854 83.0329 16.3436C82.9261 16.4132 82.8121 16.4715 82.6928 16.5176C82.4087 16.6456 82.1089 16.7366 81.8008 16.7884C81.7792 16.8265 81.7627 16.8671 81.7515 16.9093L81.6579 17.1704C81.6579 17.2719 81.6283 17.3686 81.6184 17.446C81.6129 17.4877 81.6129 17.53 81.6184 17.5717C81.9213 17.5694 82.2221 17.6218 82.5055 17.7265C82.7277 17.79 82.9231 17.9223 83.0625 18.1036C83.1168 18.1851 83.1498 18.2785 83.1584 18.3756C83.167 18.4726 83.1509 18.5702 83.1117 18.6597C83.0185 18.9172 82.8463 19.1402 82.6189 19.298L82.6633 19.3318L82.7865 19.4188C82.8998 19.4962 83.0378 19.5978 83.1955 19.6945L83.6884 19.9459C83.7438 19.9773 83.8014 20.0048 83.8609 20.0281L83.9249 20.0571C84.3153 19.9011 84.7273 19.8033 85.1472 19.767C85.3488 19.7478 85.5518 19.7478 85.7534 19.767C85.9189 19.7741 86.0836 19.7935 86.2462 19.825C86.4283 19.8638 86.6065 19.9189 86.7785 19.9894C86.9348 20.0589 87.0849 20.1414 87.2269 20.236C87.4907 20.4095 87.6924 20.6598 87.8036 20.9517H88.1535C88.3654 20.9517 88.6463 20.9758 88.9322 20.9517C89.218 20.9275 89.4989 20.9517 89.7108 20.9226L90.0558 20.8936C90.087 20.7496 90.1474 20.6131 90.2332 20.4923C90.2784 20.4325 90.3278 20.376 90.3811 20.3231L90.5536 20.1635C90.6831 20.0619 90.8256 19.9774 90.9774 19.9121C91.1339 19.8333 91.2993 19.7733 91.4703 19.7331C91.6603 19.6908 91.8529 19.6601 92.0469 19.6413C92.2488 19.6292 92.4512 19.6292 92.6531 19.6413C93.0762 19.665 93.4933 19.7514 93.8901 19.8975L94.1316 19.825C94.2833 19.7455 94.4298 19.6566 94.5702 19.5591C94.7082 19.4575 94.8511 19.3608 94.9399 19.2835L95.0828 19.1529C94.8454 19.0004 94.6519 18.7906 94.5209 18.5436C94.4773 18.453 94.4554 18.3538 94.4569 18.2535C94.4462 18.1618 94.4689 18.0693 94.5209 17.9924C94.6336 17.8145 94.8062 17.6811 95.0088 17.6153Z" fill="white"/>
<path d="M90.9776 8.50056C91.2984 8.25707 91.5584 7.94497 91.7378 7.58801C91.9171 7.23106 92.0111 6.83866 92.0126 6.44069C92.0126 4.89821 90.534 3.65552 88.6958 3.65552C86.8575 3.65552 85.3888 4.89821 85.374 6.44069C85.3775 6.8388 85.4729 7.23097 85.653 7.58773C85.8331 7.94449 86.0932 8.25658 86.4139 8.50056C86.8779 8.93038 87.2482 9.44813 87.5024 10.0224C87.7565 10.5968 87.8892 11.2157 87.8924 11.8418C87.9368 13.4085 87.8284 15.2266 87.7594 16.1453C86.9068 16.2613 86.3055 16.5418 86.3055 16.8706C86.3055 17.3058 87.37 17.8038 88.681 17.8038C89.9919 17.8038 91.0564 17.3203 91.0564 16.8706C91.0564 16.5418 90.4552 16.2613 89.6026 16.1453C89.5336 15.2217 89.4252 13.4085 89.4695 11.8418C89.4742 11.2132 89.6105 10.5923 89.8699 10.0175C90.1294 9.44278 90.5064 8.92645 90.9776 8.50056Z" fill="url(#paint0_linear)"/>
<path d="M90.9776 8.50056C91.2984 8.25707 91.5584 7.94497 91.7378 7.58801C91.9171 7.23106 92.0111 6.83866 92.0126 6.44069C92.0126 4.89821 90.534 3.65552 88.6958 3.65552C86.8575 3.65552 85.3888 4.89821 85.374 6.44069C85.3775 6.8388 85.4729 7.23097 85.653 7.58773C85.8331 7.94449 86.0932 8.25658 86.4139 8.50056C86.8779 8.93038 87.2482 9.44813 87.5024 10.0224C87.7565 10.5968 87.8892 11.2157 87.8924 11.8418C87.9368 13.4085 87.8284 15.2266 87.7594 16.1453C86.9068 16.2613 86.3055 16.5418 86.3055 16.8706C86.3055 17.3058 87.37 17.8038 88.681 17.8038C89.9919 17.8038 91.0564 17.3203 91.0564 16.8706C91.0564 16.5418 90.4552 16.2613 89.6026 16.1453C89.5336 15.2217 89.4252 13.4085 89.4695 11.8418C89.4742 11.2132 89.6105 10.5923 89.8699 10.0175C90.1294 9.44278 90.5064 8.92645 90.9776 8.50056Z" fill="url(#paint1_linear)"/>
<path d="M107.641 0.444824V7.7704C107.641 13.9355 98.4395 13.9548 98.4395 7.7704V0.444824H99.3463V7.7704C99.3463 12.8427 106.739 12.8234 106.739 7.7704V0.444824H107.641Z" fill="white"/>
<path d="M111.874 0.444824L119.956 10.1978V0.444824H120.868V12.2334H120.508L112.396 2.49986V12.2334H111.47V0.444824H111.874Z" fill="white"/>
<path d="M134.9 6.20375C134.969 9.20167 133.012 12.2334 128.808 12.2334H124.737V0.444824H128.808C132.874 0.444824 134.836 3.30736 134.9 6.20375ZM125.674 1.30552V11.3582H128.818C132.386 11.3582 134.037 8.73264 133.983 6.20375C133.929 3.67485 132.273 1.30552 128.808 1.30552H125.674Z" fill="white"/>
<path d="M147.882 12.2334H146.664L142.505 7.77041H139.227V12.2334H138.301V0.444824H143.589C146.196 0.444824 147.532 2.28226 147.532 4.11487C147.532 6.04902 146.26 7.72205 143.633 7.72205L147.882 12.2334ZM139.227 6.91455H143.485C145.58 6.91455 146.507 5.74922 146.526 4.10036C146.54 3.71964 146.473 3.34029 146.328 2.98683C146.183 2.63338 145.964 2.31368 145.685 2.04844C145.407 1.78319 145.074 1.57828 144.71 1.44698C144.345 1.31568 143.957 1.2609 143.569 1.28618H139.227V6.91455Z" fill="white"/>
<path d="M154.367 7.51897L149.68 0.483507H150.764L154.83 6.68245L158.92 0.444824H160V0.483507L155.293 7.54314V12.2334H154.367V7.51897Z" fill="white"/>
<defs>
<linearGradient id="paint0_linear" x1="89.7701" y1="0.971888" x2="86.8598" y2="21.7408" gradientUnits="userSpaceOnUse">
<stop stop-color="#00B2E3"/>
<stop offset="0.13" stop-color="#00B2E3"/>
<stop offset="1" stop-color="#00B2E3" stop-opacity="0"/>
</linearGradient>
<linearGradient id="paint1_linear" x1="89.7701" y1="0.971888" x2="86.8598" y2="21.7408" gradientUnits="userSpaceOnUse">
<stop stop-color="#385CAD" stop-opacity="0"/>
<stop offset="0.13" stop-color="#385CAD" stop-opacity="0"/>
<stop offset="1" stop-color="#385CAD"/>
</linearGradient>
</defs>
</svg>
