<svg width="52" height="52" viewBox="0 0 52 52" fill="none" xmlns="http://www.w3.org/2000/svg">
<path d="M11.3316 32.8728C11.3316 35.8952 8.94146 38.3379 5.98416 38.3379C3.02686 38.3379 0.636719 35.8952 0.636719 32.8728C0.636719 29.8504 3.02686 27.4077 5.98416 27.4077H11.3316V32.8728Z" fill="#E01E5A"/>
<path d="M14.0059 32.8727C14.0059 29.8504 16.396 27.4077 19.3533 27.4077C22.3106 27.4077 24.7008 29.8504 24.7008 32.8727V46.5351C24.7008 49.5574 22.3106 52.0001 19.3533 52.0001C16.396 52.0001 14.0059 49.5574 14.0059 46.5351V32.8727Z" fill="#E01E5A"/>
<path d="M19.3533 10.93C16.396 10.93 14.0059 8.4873 14.0059 5.465C14.0059 2.44269 16.396 0 19.3533 0C22.3106 0 24.7008 2.44269 24.7008 5.465V10.93H19.3533Z" fill="#36C5F0"/>
<path d="M19.3543 13.7036C22.3116 13.7036 24.7017 16.1463 24.7017 19.1686C24.7017 22.1909 22.3116 24.6336 19.3543 24.6336H5.94512C2.98781 24.6336 0.597656 22.1909 0.597656 19.1686C0.597656 16.1463 2.98781 13.7036 5.94512 13.7036H19.3543Z" fill="#36C5F0"/>
<path d="M40.7852 19.1686C40.7852 16.1463 43.1753 13.7036 46.1326 13.7036C49.0899 13.7036 51.4801 16.1463 51.4801 19.1686C51.4801 22.1909 49.0899 24.6336 46.1326 24.6336H40.7852V19.1686Z" fill="#2EB67D"/>
<path d="M38.1109 19.1688C38.1109 22.1911 35.7208 24.6338 32.7635 24.6338C29.8062 24.6338 27.416 22.1911 27.416 19.1688V5.46498C27.416 2.44268 29.8062 0 32.7635 0C35.7208 0 38.1109 2.44268 38.1109 5.46498V19.1688Z" fill="#2EB67D"/>
<path d="M32.7635 41.0698C35.7208 41.0698 38.1109 43.5125 38.1109 46.5348C38.1109 49.5571 35.7208 51.9998 32.7635 51.9998C29.8062 51.9998 27.416 49.5571 27.416 46.5348V41.0698H32.7635Z" fill="#ECB22E"/>
<path d="M32.7635 38.3377C29.8062 38.3377 27.416 35.895 27.416 32.8727C27.416 29.8504 29.8062 27.4077 32.7635 27.4077H46.1726C49.1299 27.4077 51.5201 29.8504 51.5201 32.8727C51.5201 35.895 49.1299 38.3377 46.1726 38.3377H32.7635Z" fill="#ECB22E"/>
</svg>
