<?xml version="1.0" encoding="UTF-8"?>
<svg version="1.1" viewBox="0 0 64 64" xmlns="http://www.w3.org/2000/svg" xmlns:xlink="http://www.w3.org/1999/xlink">
    <!--Generated by IJSVG (https://github.com/iconjar/IJSVG)-->
    <path d="M53.8597,10.6403c11.5205,11.5205 11.5205,30.1988 0,41.7193c-11.5205,11.5205 -30.1988,11.5205 -41.7193,0c-11.5205,-11.5205 -11.5205,-30.1988 -7.10543e-15,-41.7193c11.5205,-11.5205 30.1988,-11.5205 41.7193,-7.10543e-15" fill="#E9EAEB"></path>
    <path fill="#f7ca45" stroke="#384a9a" stroke-width="2" d="M59,48h-22.5l-2,2h-8l-2,-2h-23.5v-36h58Z"></path>
    <g stroke-width="2" fill="#FFF" stroke="#384a9a">
        <path d="M32.5,46h-2.5v-31c0,-3.2 2.5,-6 6.5,-6h17.5v35h-17.5c-1.9,0 -3.2,0.5 -4,2Z"></path>
        <path d="M28.5,46h1.5v-31c0,-3.2 -1.5,-6 -5.5,-6h-18.5v35h18.5c1.9,0 3.3,0.5 4,2Z"></path>
        <path d="M62,45.9l-18,-12.9v21.9c1,0.7 0.8,0.9 1.3,0.4l5.1,-4.8l4.9,8.5c0.4,0.7 1.4,0.8 2.1,0.3l2,-1.3c0.8,-0.5 1.1,-1.4 0.7,-2l-4.6,-8h6c0.8,-0.1 1.1,-1.7 0.5,-2.1Z"></path>
        <path fill="none" d="M43,28v-4"></path>
        <path fill="none" d="M40.8,28.3l-1.8,-3.1"></path>
        <path fill="none" d="M38.8,30.3l-3.1,-1.8"></path>
        <path fill="none" d="M39,33h-4"></path>
        <path fill="none" d="M46.2,28.3l1.8,-3.1"></path>
        <path fill="none" d="M38.8,35.7l-3.1,1.8"></path>
        <path stroke-linejoin="round" d="M28.5,46h1.5v-31c0,-3.2 -1.4,-6.5 -4.6,-7.6l-14.4,-4.3v35l14.7,4.3c1.7,0.7 2.4,1.9 2.8,3.6Z"></path>
    </g>
</svg>