<?xml version="1.0" encoding="UTF-8"?>
<svg version="1.1" viewBox="0 0 64 64" xmlns="http://www.w3.org/2000/svg" xmlns:xlink="http://www.w3.org/1999/xlink">
    <!--Generated by IJSVG (https://github.com/iconjar/IJSVG)-->
    <path d="M44.5312,17.4688c9.95837,9.95837 9.95837,26.1041 0,36.0624c-9.95837,9.95837 -26.1041,9.95837 -36.0624,0c-9.95837,-9.95837 -9.95837,-26.1041 0,-36.0624c9.95837,-9.95837 26.1041,-9.95837 36.0624,0" fill="#E9EAEB"></path>
    <path fill="#FFF" d="M55,19v-12c0,-2.2 -1.8,-4 -4,-4h-25c-2.2,0 -4,1.8 -4,4v5h-14c-2.2,0 -4,1.8 -4,4v18c0,2.2 1.8,4 4,4h4v6.5c0,0.9 1.1,1.3 1.7,0.7l7,-7.2h7.3v0v3c0,2.2 1.8,4 4,4h15.3l7,7.2c0.6,0.6 1.7,0.2 1.7,-0.7v-6.5h3c2.2,0 4,-1.8 4,-4v-18c0,-2.2 -1.8,-4 -4,-4h-4Z"></path>
    <g stroke-width="2" fill="#f7ca45" stroke="#384a9a">
        <path d="M8,12h24c2.2,0 4,1.8 4,4v18c0,2.2 -1.8,4 -4,4h-11.3l-7,7.2c-0.6,0.6 -1.7,0.2 -1.7,-0.7v-6.5h-4c-2.2,0 -4,-1.8 -4,-4v-18c0,-2.2 1.8,-4 4,-4Z"></path>
        <path fill="none" d="M22,15v9c0,2.2 1.8,4 4,4h7"></path>
        <path fill="none" d="M55,19v-12c0,-2.2 -1.8,-4 -4,-4h-25c-2.2,0 -4,1.8 -4,4v5"></path>
        <path fill="none" d="M36,28h5l6.3,7c0.6,0.7 1.7,0.3 1.7,-0.7v-6.4h2c2.2,0 4,-1.8 4,-4v-2"></path>
        <path fill="none" d="M28,38v3c0,2.2 1.8,4 4,4h15.3l7,7.2c0.6,0.6 1.7,0.2 1.7,-0.7v-6.5h3c2.2,0 4,-1.8 4,-4v-18c0,-2.2 -1.8,-4 -4,-4h-23"></path>
        <path fill="none" d="M28,28v7"></path>
        <path fill="none" d="M33,19h-1c-2.2,0 -4,1.8 -4,4v2"></path>
    </g>
</svg>