<svg width="56" height="50" viewBox="0 0 56 50" fill="none" xmlns="http://www.w3.org/2000/svg">
<rect x="8.28711" y="7.59082" width="36.8786" height="36.0302" rx="1.5" stroke="white" stroke-width="3"/>
<line x1="38.5494" y1="15.6334" x2="55.7823" y2="17.857" stroke="white" stroke-width="3"/>
<line x1="38.2975" y1="22.8491" x2="52.195" y2="22.2932" stroke="white" stroke-width="3"/>
<line x1="38.1816" y1="28.3484" x2="55.9998" y2="28.3484" stroke="white" stroke-width="3"/>
<line x1="38.1816" y1="35.9846" x2="52.6058" y2="35.9846" stroke="white" stroke-width="3"/>
<line x1="0.847656" y1="15.6211" x2="11.8779" y2="15.6211" stroke="white" stroke-width="3"/>
<line x1="1.21149" y1="21.7394" x2="11.9999" y2="22.4614" stroke="white" stroke-width="3"/>
<line x1="0.975525" y1="28.4131" x2="13.2054" y2="27.3013" stroke="white" stroke-width="3"/>
<line x1="0.47261" y1="32.3745" x2="13.6623" y2="36.7532" stroke="white" stroke-width="3"/>
<line x1="15.8606" y1="1.03735" x2="19.752" y2="11.5995" stroke="white" stroke-width="3"/>
<line x1="24.2911" y1="0.925094" x2="24.847" y2="12.0431" stroke="white" stroke-width="3"/>
<line x1="32.0713" y1="3.3172" x2="31.5154" y2="12.2116" stroke="white" stroke-width="3"/>
<line x1="33.7422" y1="40.8787" x2="33.7422" y2="49.3635" stroke="white" stroke-width="3"/>
<line x1="20.3971" y1="41.1247" x2="19.8412" y2="49.4632" stroke="white" stroke-width="3"/>
<line x1="28.7354" y1="40.3754" x2="29.2913" y2="49.2699" stroke="white" stroke-width="3"/>
</svg>
