<svg xmlns="http://www.w3.org/2000/svg" height="1024" width="768" style=""><rect id="backgroundrect" width="100%" height="100%" x="0" y="0" fill="none" stroke="none"/>
  
<g class="currentLayer" style=""><title>Layer 1</title><path d="M704,721 s0,-306 0,-402 s-96,-192 -192,-192 c-64,0 -64,0 -64,0 v-128 l-192,192 l192,192 v-128 s32,0 64,0 s64,32 64,64 s0,402 0,402 c-38,22 -64,63 -64,110 c0,71 57,128 128,128 s128,-57 128,-128 c0,-47 -26,-88 -64,-110 zm-64,174 c-35,0 -64,-29 -64,-64 s29,-64 64,-64 s64,29 64,64 s-29,64 -64,64 zm-512,-832 c-71,0 -128,57 -128,128 c0,47 26,88 64,110 v419 c-38,22 -64,63 -64,110 c0,71 57,128 128,128 s128,-57 128,-128 c0,-47 -26,-88 -64,-110 v-419 c38,-22 64,-63 64,-110 c0,-71 -57,-128 -128,-128 zm0,832 c-35,0 -64,-29 -64,-64 s29,-64 64,-64 s64,29 64,64 s-29,64 -64,64 zm0,-640 c-35,0 -64,-29 -64,-64 s29,-64 64,-64 s64,29 64,64 s-29,64 -64,64 z" id="svg_1" class="selected" fill-opacity="1" fill="#0bdc9d"/></g></svg>