<svg xmlns="http://www.w3.org/2000/svg" fill="none" viewBox="2.4 2 98.3 32.8">
<path d="M91.8992 2H91.5992C91.0992 2 90.6992 2.4 90.6992 2.9V11.1C90.6992 11.6 91.0992 12 91.5992 12H99.7992C100.299 12 100.699 11.6 100.699 11.1V7.7C100.699 7.4 100.499 7.1 100.299 6.9L92.3992 2.1C92.2992 2 92.0992 2 91.8992 2Z" fill="#20BA31"/>
<path d="M2.40039 7.7V11.1C2.40039 11.6 2.80039 12 3.30039 12H11.5004C12.0004 12 12.4004 11.6 12.4004 11.1V2.9C12.4004 2.4 12.0004 2 11.5004 2H11.2004C11.0004 2 10.9004 2 10.7004 2.1L2.90039 6.9C2.60039 7.1 2.40039 7.4 2.40039 7.7Z" fill="#20BA31"/>
<path d="M36 2.9V3.2C36 3.4 36 3.5 36.1 3.7L40.9 11.6C41.1 11.9 41.4 12 41.7 12H46C46.5 12 46.9 11.6 46.9 11.1V3C46.9 2.4 46.5 2 46 2H36.9C36.4 2 36 2.4 36 2.9Z" fill="#20BA31"/>
<path d="M73.9004 29V25.6C73.9004 25.1 73.5004 24.7 73.0004 24.7H64.8004C64.3004 24.7 63.9004 25.1 63.9004 25.6V33.7999C63.9004 34.2999 64.3004 34.7 64.8004 34.7H65.1004C65.3004 34.7 65.4004 34.6999 65.6004 34.5999L73.5004 29.7999C73.8004 29.6999 73.9004 29.4 73.9004 29Z" fill="#20BA31"/>
<path d="M32.5 2.9V11C32.5 11.5 32.1 11.9 31.6 11.9H26.3C25.8 11.9 25.4 12.3 25.4 12.8V33.7C25.4 34.2 25 34.6 24.5 34.6H15.4C14.9 34.6 14.5 34.2 14.5 33.7V2.9C14.5 2.4 14.9 2 15.4 2H31.6C32.1 2 32.5 2.4 32.5 2.9Z" fill="#70D37B"/>
<path d="M88.8008 2.9V33.8C88.8008 34.3 88.4008 34.7 87.9008 34.7H78.8008C78.3008 34.7 77.9008 34.3 77.9008 33.8V12.9C77.9008 12.4 77.5008 12 77.0008 12H71.7008C71.2008 12 70.8008 11.6 70.8008 11.1V2.9C70.8008 2.4 71.2008 2 71.7008 2H87.9008C88.3008 2 88.8008 2.4 88.8008 2.9Z" fill="#70D37B"/>
<path d="M61 34.8H51.9C51.4 34.8 51 34.4 51 33.9V2.9C51 2.4 51.4 2 51.9 2H61C61.5 2 61.9 2.4 61.9 2.9V33.8C61.9 34.3 61.5 34.8 61 34.8Z" fill="#70D37B"/>
<path d="M46.2 34.8H36.7C36.3 34.8 36 34.5 36 34.1V15.3C36 14.9 36.3 14.6 36.7 14.6H46.2C46.6 14.6 46.9 14.9 46.9 15.3V34C46.9 34.4 46.6 34.8 46.2 34.8Z" fill="#70D37B"/>
</svg>