<svg id="LOGOS" xmlns="http://www.w3.org/2000/svg" viewBox="0 0 251 258"><defs><style>.cls-1{fill:#fff;}</style></defs><path class="cls-1" d="M34.7,189.72V184.9H30.28v4.82H28V178.13h2.25V183H34.7v-4.86H37v11.59Zm10.52,0H43.43l-.16-.56a4.94,4.94,0,0,1-2.59.74c-1.59,0-2.27-1.05-2.27-2.5,0-1.7.77-2.35,2.54-2.35H43v-.88c0-.92-.27-1.25-1.66-1.25a12.28,12.28,0,0,0-2.42.26l-.27-1.6a11.94,11.94,0,0,1,3-.39c2.74,0,3.54.92,3.54,3ZM43,186.56H41.43c-.71,0-.91.19-.91.83s.2.84.88.84A3.57,3.57,0,0,0,43,187.8Zm6.76,3.33a10.54,10.54,0,0,1-3-.48l.3-1.59a10.46,10.46,0,0,0,2.6.36c1,0,1.11-.21,1.11-.84s-.11-.78-1.52-1.1c-2.13-.5-2.38-1-2.38-2.63s.77-2.42,3.25-2.42a12,12,0,0,1,2.62.29l-.22,1.66a16,16,0,0,0-2.4-.24c-.94,0-1.11.21-1.11.72,0,.67.06.73,1.24,1,2.43.62,2.66.93,2.66,2.64S52.43,189.89,49.8,189.89Zm10-.17v-5.84c0-.44-.2-.67-.7-.67a6.12,6.12,0,0,0-2.27.71v5.8H54.64V178l2.18.33V182a7.9,7.9,0,0,1,3.18-.8c1.45,0,2,1,2,2.47v6.06Zm4-9.55v-2H66v2Zm0,9.55v-8.36H66v8.36Zm3.93-8.29c0-2.1,1.27-3.32,4.24-3.32a14,14,0,0,1,3.24.38L75,180.36a18.48,18.48,0,0,0-2.92-.29c-1.55,0-2.06.51-2.06,1.73v4.4c0,1.22.51,1.74,2.06,1.74a17.44,17.44,0,0,0,2.92-.3l.25,1.88a14,14,0,0,1-3.24.37c-3,0-4.24-1.21-4.24-3.31ZM80,189.89c-3,0-3.79-1.58-3.79-3.29v-2.12c0-1.71.8-3.29,3.79-3.29s3.79,1.58,3.79,3.29v2.12C83.82,188.31,83,189.89,80,189.89ZM80,183c-1.16,0-1.61.5-1.61,1.44v2.26c0,.94.45,1.44,1.61,1.44s1.61-.5,1.61-1.44v-2.26C81.64,183.47,81.19,183,80,183Zm9.94.14a17.6,17.6,0,0,0-2.31,1.22v5.39H85.48v-8.36h1.84l.15.92a10,10,0,0,1,2.29-1.09Zm8.73,3.83c0,1.86-.86,2.95-2.89,2.95a12.32,12.32,0,0,1-2.32-.24v3.42l-2.18.33v-12H93l.22.7a4.71,4.71,0,0,1,2.75-.87c1.75,0,2.69,1,2.69,2.9Zm-5.21.94a9.35,9.35,0,0,0,1.93.23c.79,0,1.09-.36,1.09-1.12v-3c0-.69-.27-1.07-1.07-1.07a3.15,3.15,0,0,0-2,.76Z"/><path class="cls-1" d="M62.13,224.81l6.55-26.64h6.46l-8.52,34.39H57.84l-6.3-27.68-6.3,27.68H36.46l-8.52-34.39H34.4L41,224.81l6.24-26.64h8.68Z"/><path class="cls-1" d="M94.55,232.56H89.39l-.47-1.7a13.82,13.82,0,0,1-7.49,2.22c-4.59,0-6.55-3.15-6.55-7.49,0-5.11,2.22-7.07,7.33-7.07h6v-2.64c0-2.79-.78-3.77-4.8-3.77a34.78,34.78,0,0,0-7,.78l-.78-4.8a32.59,32.59,0,0,1,8.63-1.19c7.9,0,10.22,2.79,10.22,9.09Zm-6.3-9.5H83.6c-2.06,0-2.63.57-2.63,2.48,0,1.75.57,2.53,2.53,2.53a9.93,9.93,0,0,0,4.75-1.29Z"/><path class="cls-1" d="M112.21,232.56l-3.36,10.17h-6L106,232.56h-2.22l-8-25.15h6.45L108,226.52l5.79-19.11h6.45Z"/><path class="cls-1" d="M143.13,224.2c0,5.57-2.47,8.88-8.31,8.88a34.14,34.14,0,0,1-6.71-.73v10.38l-6.3.88v-36.2h5l.62,2.12a13.23,13.23,0,0,1,7.95-2.63c5.06,0,7.74,3,7.74,8.72Zm-15,2.84a28,28,0,0,0,5.57.67c2.28,0,3.15-1.09,3.15-3.36v-8.88c0-2.07-.77-3.2-3.09-3.2a8.89,8.89,0,0,0-5.63,2.27Z"/><path class="cls-1" d="M157.07,233.08c-8.62,0-10.94-4.75-10.94-9.92v-6.35c0-5.16,2.32-9.91,10.94-9.91s11,4.75,11,9.91v6.35C168,228.33,165.7,233.08,157.07,233.08Zm0-20.81c-3.35,0-4.64,1.5-4.64,4.33v6.77c0,2.84,1.29,4.34,4.64,4.34s4.65-1.5,4.65-4.34V216.6C161.72,213.77,160.43,212.27,157.07,212.27Z"/><path class="cls-1" d="M171.84,203.85v-7.28h6.3v7.28Zm0,28.71V207.41h6.3v25.15Z"/><path class="cls-1" d="M198.17,232.56V215c0-1.34-.57-2-2-2a17.34,17.34,0,0,0-6.56,2.12v17.45h-6.3V207.41h4.8l.62,2.12a25.19,25.19,0,0,1,10.07-2.63c4.18,0,5.68,2.94,5.68,7.43v18.23Z"/><path class="cls-1" d="M222.75,232.1a17.77,17.77,0,0,1-5.53,1c-4.59,0-6.92-2.17-6.92-6.66v-14h-3.77v-5h3.77v-6.24l6.3-.88v7.12h6.46l-.42,5h-6v13.17a2,2,0,0,0,2.27,2.22,12.1,12.1,0,0,0,3.15-.52Z"/><polygon class="cls-1" points="212.83 35.79 191.02 73.56 169.21 35.79 212.83 35.79"/><polygon class="cls-1" points="96.39 61 81.84 61 118.22 124.02 103.67 149.23 38.17 35.79 110.95 35.79 147.34 98.81 154.61 86.21 125.5 35.79 154.61 35.79 169.17 61 183.72 86.21 147.34 149.23 96.39 61"/></svg>