<svg xmlns="http://www.w3.org/2000/svg" xmlns:xlink="http://www.w3.org/1999/xlink" version="1.1" id="Layer_1" x="0px" y="0px" style="enable-background:new 0 0 216 216;" xml:space="preserve" viewBox="18.5 21.2 178.4 152.7">
<style type="text/css">
	.Arched_x0020_Green{fill:url(#SVGID_1_);stroke:#FFFFFF;stroke-width:0.25;stroke-miterlimit:1;}
	.st0{fill:none;}
	.st1{fill:#9CD7EE;}
	.st2{fill:#7DBAE7;}
	.st3{fill:#1F1E1E;}
	.st4{fill:#030405;}
	.st5{fill:#F4CCB0;}
	.st6{fill:#C49B85;}
	.st7{fill:#FFFFFF;}
	.st8{fill:#AE5C50;}
</style>
<linearGradient id="SVGID_1_" gradientUnits="userSpaceOnUse" x1="0" y1="216" x2="0.7071" y2="215.2929">
	<stop offset="0" style="stop-color:#1DA238"/>
	<stop offset="0.9831" style="stop-color:#24391D"/>
</linearGradient>
<image style="display:none;overflow:visible;" width="800" height="665" xlink:href="../../../Downloads/Octocat/Octocat.png" transform="matrix(0.239 0 0 0.239 12.3426 18.0509)">
</image>
<g>
	<path class="st0" d="M97.5,120.4l-0.4-0.2c-2.7,2.2-2.3,6.7-2.3,6.7l0,12.6c0.9-0.1,1.8-0.2,2.7-0.2L97.5,120.4z"/>
	<polygon class="st0" points="86.1,119.2 86.2,118.5 86.1,119.6  "/>
	<path class="st0" d="M120.6,126.8c0,0,0.4-4.4-2.3-6.7l-0.4,0.2L118,139c0.9,0.1,1.8,0.1,2.7,0.2L120.6,126.8z"/>
	<path class="st0" d="M109,138.7v-20c0,0-0.2-1-1.2-1h-0.1c-1,0-1.2,1-1.2,1v20c0.6,0,1.3,0,1.9,0   C108.6,138.7,108.8,138.7,109,138.7z"/>
	<path class="st1" d="M96.2,161.9c-0.7,0-1.2-0.2-1.6-0.5c0.1,0.4,0.1,0.7,0.2,1.2l0,10.7c0.9,0.1,1.8,0.2,2.7,0.2l0-5.7   C97.4,167.8,97.8,163.7,96.2,161.9z"/>
	<path class="st1" d="M82.6,156.3c-1.2-0.6-1.9-1.1-2.3-1.4c-0.2,0-0.4-0.1-0.4-0.1s-2.2-1.3,2.2-3.2s4.2-6.3,4.2-6.3l0-4.8   c-16.7,2.9-28.2,8.9-28.2,15.8c0,7,11.5,13,28.2,15.8l0-9.2C86.4,162.9,86,158,82.6,156.3z"/>
	<path class="st1" d="M126.4,154.1c-2.7-1.2-5.1-3.6-5.7-8.4l0-6.4c-0.9-0.1-1.8-0.1-2.7-0.2l0,13c0,0-0.5,4.4,2.1,5.6   c0.8,0.4,1.3,0.9,1.5,1.4C122.7,156.4,124.5,154.9,126.4,154.1z"/>
	<path class="st1" d="M93.9,159c0.2-0.5,0.6-1,1.5-1.4c2.6-1.2,2.1-5.6,2.1-5.6l0-12.9c-0.9,0.1-1.8,0.1-2.7,0.2l0,6.3   c-0.6,4.8-3.1,7.3-5.8,8.5C90.9,155,92.8,156.4,93.9,159z"/>
	<path class="st1" d="M133.4,151.6c4.3,1.9,2.2,3.2,2.2,3.2s-0.2,0-0.6,0.1c-0.3,0.5-1,1.1-2.4,1.7c-3.5,1.7-3.5,6.4-3.5,6.4l0,9.2   c-2.7,0.4-5.5,0.8-8.4,1.1l0-10.6c0.1-0.5,0.1-0.9,0.2-1.3c-0.4,0.2-0.9,0.5-1.7,0.5c-1.2,2.1-1.2,5.9-1.2,5.9l0,5.7   c-2.9,0.2-5.9,0.3-9,0.3v-6.4c0.1-3.3,1.2-6.5,3.4-8.7c-2-1.6-3.4-3.7-3.4-6.5v-13.6c-0.2,0-0.4,0-0.6,0c-0.6,0-1.3,0-1.9,0v13.6   c-0.1,2.8-1.5,4.9-3.6,6.6c2.7,2,3.5,4.9,3.6,8.6v6.4c0.6,0,1.3,0,1.9,0c27.7,0,50.2-7.9,50.2-17.6c0-7.1-12.1-13.3-29.5-16l0,5   C129.1,145.3,129.1,149.7,133.4,151.6z"/>
	<path class="st2" d="M109,173.9c3.1,0,6.1-0.1,9-0.3l0-5.7c0,0,0-3.9,1.2-5.9c-0.7,0-1.6-0.1-2.6-0.6c-1.6-0.7-3-1.5-4.2-2.5   c-2.3,2.2-3.4,5.4-3.4,8.7V173.9z"/>
	<path class="st2" d="M120.7,173.3c2.9-0.3,5.7-0.6,8.4-1.1l0-9.2c0,0,0-4.7,3.5-6.4c1.4-0.7,2.1-1.2,2.4-1.7   c-1.4,0.2-5.2,0.6-8.5-0.9c-1.9,0.9-3.7,2.4-4.8,4.9c0.4,0.9,0,1.7,0,1.7s-0.2,0.3-0.7,0.7c-0.1,0.4-0.2,0.9-0.2,1.3L120.7,173.3z"/>
	<path class="st2" d="M94.6,161.4c-0.5-0.3-0.8-0.7-0.8-0.7s-0.4-0.9,0-1.8c-1.1-2.5-2.9-4-4.9-4.9c-3.5,1.5-7.4,1-8.6,0.8   c0.4,0.4,1.1,0.9,2.3,1.4c3.3,1.7,3.7,6.6,3.7,6.6l0,9.2l0,0c2.7,0.5,5.5,0.8,8.4,1.1l0,0l0-10.7C94.7,162.2,94.7,161.8,94.6,161.4   z"/>
	<path class="st2" d="M102.9,158.9c-1.2,0.9-2.6,1.7-4.1,2.4c-1.1,0.5-2,0.6-2.7,0.6c1.7,1.8,1.3,5.9,1.3,5.9l0,5.7l0,0   c1,0.1,2.1,0.1,3.2,0.2c0.1,0,0.1,0,0.2,0c0.7,0,1.3,0.1,2,0.1c1.1,0,2.3,0.1,3.5,0.1c0.1,0,0.1,0,0.2,0v0v-6.4   C106.4,163.9,105.6,160.9,102.9,158.9z"/>
	<path class="st3" d="M122.3,111.7c-4.8-2.2-7.2-2.4-11.4-2.4c-3.8,0-15.2,0.3-17.9,1.1c-2.7,0.8-3.9,1.7-3.9,1.7   c-1.2,1.8-2,3.9-2.4,6.2c0,0.5-0.1,1-0.1,1.5l0,0l0,0l-0.1,2.2l0,0.1l0,0c-0.1,3-0.1,5.9-0.1,5.9l0,12.5l0,4.8c0,0,0.1,4.4-4.2,6.3   s-2.2,3.2-2.2,3.2s0.1,0,0.4,0.1c1.2,0.2,5.1,0.7,8.6-0.8c2.8-1.2,5.3-3.6,5.8-8.5l0-6.3l0-12.6c0,0-0.4-4.4,2.3-6.7l0.4,0.2   l-0.1,18.8l0,12.9c0,0,0.5,4.4-2.1,5.6c-0.8,0.4-1.3,0.9-1.5,1.4c-0.4,0.9,0,1.8,0,1.8s0.2,0.4,0.8,0.7c0.4,0.2,0.9,0.4,1.6,0.5   c0.7,0,1.6-0.1,2.7-0.6c1.5-0.7,2.9-1.4,4.1-2.4c2.1-1.6,3.5-3.8,3.6-6.6v-13.6v-20c0,0,0.2-1,1.2-1h0.1c1,0,1.2,1,1.2,1v20v13.6   c0.1,2.8,1.4,4.8,3.4,6.5c1.2,1,2.7,1.8,4.2,2.5c1,0.5,1.9,0.6,2.6,0.6c0.7,0,1.3-0.2,1.7-0.5c0.5-0.3,0.7-0.7,0.7-0.7   s0.4-0.8,0-1.7c-0.2-0.5-0.6-1-1.5-1.4c-2.6-1.2-2.1-5.6-2.1-5.6l0-13l-0.1-18.7l0.4-0.2c2.7,2.2,2.3,6.7,2.3,6.7l0,12.4l0,6.4   c0.6,4.8,3,7.2,5.7,8.4c3.3,1.5,7.1,1.1,8.5,0.9c0.4-0.1,0.6-0.1,0.6-0.1s2.2-1.3-2.2-3.2c-4.3-1.9-4.2-6.3-4.2-6.3l0-5l0-18.8   c0-0.7-0.1-1.5-0.2-2.2C128.7,118.6,126.7,113.7,122.3,111.7z"/>
	<path class="st3" d="M85.7,122c-0.9,0-1.6-0.5-1.6-1.1c0-0.6,0.7-1.1,1.6-1.1c0.1,0,0.3,0,0.4,0l0-0.2l0,0l0-1.1c0,0,0,0,0,0   c-1.4,0.6-5.3,2.1-8.6,2c-4.1-0.2-8.6-2.4-10.6-4.8c-2-2.3-4.5-7.4-8.1-9.4c-3.3-1.8-5.7-2.3-8.3-1.7c-2.7,0.6-0.7,2.6,0.5,3.4   c0,0,5.7,2.5,7.8,6.4c2.1,3.9,5.8,10.4,11.8,12.8c0,0,5.3,2.8,15,0.8L86,122C85.9,122,85.8,122,85.7,122z M57.7,107.6   c-0.2,0.3-0.7,0.4-1.2,0.1s-0.7-0.8-0.5-1.1c0.2-0.3,0.7-0.4,1.2-0.1C57.6,106.8,57.9,107.3,57.7,107.6z M60.6,110.3   c-0.3,0.3-1,0.2-1.4-0.2s-0.6-1.1-0.2-1.4s1-0.2,1.4,0.2S61,109.9,60.6,110.3z M63.6,114.1c-0.5,0.3-1.2,0-1.6-0.6   s-0.4-1.4,0.1-1.7c0.5-0.3,1.2,0,1.6,0.6S64,113.8,63.6,114.1z M67.1,118c-0.4,0.4-1.2,0.3-1.8-0.3c-0.6-0.6-0.7-1.4-0.3-1.8   c0.4-0.4,1.2-0.3,1.8,0.3C67.4,116.8,67.5,117.6,67.1,118z M71.3,120.9c-0.2,0.5-1,0.8-1.7,0.5c-0.7-0.3-1.2-1-1-1.5s1-0.8,1.7-0.5   C71.1,119.7,71.5,120.4,71.3,120.9z M76.4,122.3c-0.1,0.6-0.9,0.9-1.7,0.7s-1.4-0.8-1.2-1.4s0.9-0.9,1.7-0.7S76.5,121.8,76.4,122.3   z M80.4,123.2c-0.9,0-1.6-0.5-1.6-1.1c0-0.6,0.7-1.1,1.6-1.1s1.6,0.5,1.6,1.1C82,122.7,81.3,123.2,80.4,123.2z"/>
	<path class="st4" d="M107.3,108.3L107.3,108.3L107.3,108.3l-0.1,0v0L93.4,108c-0.1,0-0.2,0-0.3,0c-0.2,0.1-0.4,0.3-0.6,0.4   c-0.1,0-0.1,0.1-0.2,0.1c-0.2,0.2-0.5,0.4-0.7,0.6c-0.1,0.1-0.1,0.1-0.2,0.2c-0.3,0.3-0.5,0.5-0.8,0.8c0,0-0.1,0.1-0.1,0.1   c-0.2,0.2-0.4,0.5-0.6,0.8c-0.1,0.1-0.1,0.2-0.2,0.2c-0.2,0.3-0.5,0.6-0.7,0.9c0,0,1.1-0.9,3.9-1.7c2.6-0.8,14.1-1.1,17.9-1.1   c4.2,0,6.6,0.2,11.4,2.4c4.4,2,6.4,6.9,6.6,7.6c0,0,0,0.1,0,0.1c0-0.2-0.1-0.4-0.1-0.6c0-0.2-0.1-0.4-0.1-0.6   c-0.1-0.3-0.1-0.6-0.2-0.9c0-0.2-0.1-0.4-0.1-0.6c-0.1-0.3-0.2-0.7-0.3-1c0-0.1-0.1-0.3-0.1-0.4c-0.2-0.5-0.4-0.9-0.6-1.3   c0-0.1-0.1-0.1-0.1-0.2c-0.2-0.4-0.4-0.7-0.6-1.1c-0.1-0.1-0.2-0.3-0.3-0.4c-0.2-0.3-0.3-0.5-0.5-0.8c-0.1-0.2-0.2-0.3-0.3-0.4   c-0.2-0.2-0.3-0.4-0.5-0.6c-0.1-0.1-0.3-0.3-0.4-0.4c-0.2-0.2-0.4-0.4-0.6-0.6c-0.1-0.1-0.3-0.3-0.4-0.4c-0.2-0.2-0.4-0.3-0.6-0.5   c-0.2-0.1-0.3-0.2-0.5-0.4c-0.1-0.1-0.2-0.1-0.3-0.2c-0.4,0-0.8,0-1.2,0.1L107.3,108.3z"/>
	<path class="st5" d="M147.2,80.2c-0.1-2.2-0.7-4.6-1.6-6.4c-2.6-5.2-7.5-8.5-10.3-9.5c-3.8-1.4-9.8-0.6-18.5-0.1   c-8.7,0.5-9.4,0.3-9.4,0.3h-0.2c0,0-0.7,0.1-9.4-0.3s-14.7-1.3-18.5,0.1c-3.8,1.4-11.4,7.3-12,15.9v-2c-0.5,8.6,2.4,13.9,4.4,16.1   c0,0,3.5,5.3,13.3,7.8c9.5,2.5,21.6,2.3,22.3,2.3c0.5,0,13.1,0.4,22.8-2.1c9.9-2.6,13.3-7.8,13.3-7.8c2-2.2,4.3-7.7,3.8-16.3V80.2z    M85.6,93.3c-4.6,0-8.3-5.5-8.3-12.3s3.7-12.3,8.3-12.3c4.6,0,8.3,5.5,8.3,12.3S90.2,93.3,85.6,93.3z M107.4,89.2   c1.2,0,2.2,1,2.2,2.2s-1,2.2-2.2,2.2s-2.2-1-2.2-2.2S106.2,89.2,107.4,89.2z M112.3,96.6c-0.7,2.1-2.6,3.5-4.9,3.5   c-2.2,0-4.2-1.4-4.9-3.5c-0.1-0.3,0.1-0.7,0.4-0.8c0.3-0.1,0.7,0.1,0.8,0.4c0.5,1.6,2,2.7,3.7,2.7c1.7,0,3.2-1.1,3.7-2.7   c0.1-0.3,0.5-0.5,0.8-0.4C112.2,95.9,112.4,96.3,112.3,96.6z M130.3,92.8c-4.5,0-8.2-5.4-8.2-12c0-6.6,3.7-12,8.2-12   c4.5,0,8.2,5.4,8.2,12C138.5,87.4,134.8,92.8,130.3,92.8z"/>
	<path class="st1" d="M84.2,120.9c0,0.6,0.7,1.1,1.6,1.1c0.1,0,0.2,0,0.3,0c0,0,0,0,0,0l0.1-2.2c-0.1,0-0.3,0-0.4,0   C84.9,119.7,84.2,120.2,84.2,120.9z"/>
	<path class="st4" d="M86.5,122.1l0-0.1l0.1-2.2l0,0l0,0c0-0.5,0-1.1,0.1-1.5c0,0-0.1,0.1-0.2,0.1c0,0-0.1,0-0.1,0   c-0.1,0-0.1,0.1-0.2,0.1c0,0,0,0,0,0l0,0.7l0,0.3l0,0l0,0.2L86,122c0,0,0,0,0,0l-0.3,6.1l0,0c0.2,0,0.4-0.1,0.7-0.1   C86.4,128,86.4,125.1,86.5,122.1L86.5,122.1z"/>
	<path class="st6" d="M79.3,64.3c3.8-1.4,9.8-0.6,18.5-0.1s9.4,0.3,9.4,0.3h0.2c0,0,0.7,0.1,9.4-0.3c8.7-0.5,14.7-1.3,18.5,0.1   c2.8,1,7.8,4.3,10.3,9.5c0.9,1.8,1.5,4.2,1.6,6.4v-2c0-0.5-0.1-1.1-0.2-1.6c0-0.2-0.1-0.3-0.1-0.5c-0.1-0.3-0.1-0.7-0.2-1   c-0.1-0.2-0.1-0.4-0.2-0.6c-0.1-0.3-0.2-0.6-0.3-0.9c-0.1-0.2-0.2-0.4-0.3-0.6c-0.1-0.3-0.2-0.5-0.3-0.8c0,0,0-0.1,0-0.1   c0-0.1-0.1-0.1-0.1-0.2c-0.3-0.5-0.5-1-0.8-1.4c-0.1-0.1-0.2-0.3-0.3-0.4c-0.3-0.5-0.7-1-1.1-1.5c-0.1-0.1-0.1-0.1-0.2-0.2   c-0.3-0.4-0.7-0.8-1.1-1.2c-0.1-0.1-0.2-0.2-0.3-0.3c-0.4-0.4-0.8-0.8-1.2-1.1c0,0-0.1-0.1-0.1-0.1c-0.4-0.3-0.8-0.6-1.2-0.9   c-0.1-0.1-0.2-0.2-0.3-0.2c-0.4-0.3-0.8-0.6-1.2-0.8c0,0,0,0-0.1,0c-0.4-0.2-0.7-0.4-1.1-0.6c-0.1,0-0.2-0.1-0.3-0.1   c-0.4-0.2-0.7-0.3-1-0.4c-3.8-1.4-9.8-1-18.5-0.5c-8.7,0.5-9.4,0.3-9.4,0.3h-0.2c0,0-0.7,0.1-9.4-0.3s-14.7-0.9-18.5,0.5   c-3.8,1.4-11.4,6.9-12,15.5v2C67.8,71.6,75.5,65.7,79.3,64.3z"/>
	<path class="st7" d="M85.6,68.8c-4.6,0-8.3,5.5-8.3,12.3s3.7,12.3,8.3,12.3c4.6,0,8.3-5.5,8.3-12.3S90.2,68.8,85.6,68.8z M86.4,89   c-3,0-5.4-3.6-5.4-8c0-4.4,2.4-8,5.4-8c3,0,5.4,3.6,5.4,8C91.8,85.4,89.4,89,86.4,89z"/>
	<path class="st8" d="M86.4,73.1c-3,0-5.4,3.6-5.4,8c0,4.4,2.4,8,5.4,8c3,0,5.4-3.6,5.4-8C91.8,76.6,89.4,73.1,86.4,73.1z    M84.1,78.9c-0.9,0-1.6-0.7-1.6-1.6s0.7-1.6,1.6-1.6s1.6,0.7,1.6,1.6S84.9,78.9,84.1,78.9z"/>
	<path class="st7" d="M84.1,75.7c-0.9,0-1.6,0.7-1.6,1.6s0.7,1.6,1.6,1.6s1.6-0.7,1.6-1.6S84.9,75.7,84.1,75.7z"/>
	<path class="st7" d="M130.3,68.8c-4.5,0-8.2,5.4-8.2,12c0,6.6,3.7,12,8.2,12c4.5,0,8.2-5.4,8.2-12   C138.5,74.1,134.8,68.8,130.3,68.8z M129.5,89c-3,0-5.4-3.6-5.4-8c0-4.4,2.4-8,5.4-8c3,0,5.4,3.6,5.4,8   C134.9,85.4,132.5,89,129.5,89z"/>
	<path class="st8" d="M129.5,73.1c-3,0-5.4,3.6-5.4,8c0,4.4,2.4,8,5.4,8c3,0,5.4-3.6,5.4-8C134.9,76.6,132.5,73.1,129.5,73.1z    M127.7,78.6c-0.7,0-1.3-0.6-1.3-1.3c0-0.7,0.6-1.3,1.3-1.3s1.3,0.6,1.3,1.3C129,78,128.4,78.6,127.7,78.6z"/>
	<path class="st7" d="M127.7,76c-0.7,0-1.3,0.6-1.3,1.3c0,0.7,0.6,1.3,1.3,1.3s1.3-0.6,1.3-1.3C129,76.6,128.4,76,127.7,76z"/>
	<path class="st8" d="M107.4,93.6c1.2,0,2.2-1,2.2-2.2s-1-2.2-2.2-2.2s-2.2,1-2.2,2.2S106.2,93.6,107.4,93.6z"/>
	<path class="st8" d="M111.9,95.8c-0.3-0.1-0.7,0.1-0.8,0.4c-0.5,1.6-2,2.7-3.7,2.7c-1.7,0-3.2-1.1-3.7-2.7   c-0.1-0.3-0.5-0.5-0.8-0.4c-0.3,0.1-0.5,0.5-0.4,0.8c0.7,2.1,2.7,3.5,4.9,3.5c2.2,0,4.2-1.4,4.9-3.5   C112.4,96.3,112.2,95.9,111.9,95.8z"/>
	<path class="st1" d="M80.4,120.9c-0.9,0-1.6,0.5-1.6,1.1c0,0.6,0.7,1.1,1.6,1.1s1.6-0.5,1.6-1.1C82,121.5,81.3,120.9,80.4,120.9z"/>
	<path class="st1" d="M75.1,120.9c-0.8-0.2-1.6,0.2-1.7,0.7s0.4,1.2,1.2,1.4s1.6-0.2,1.7-0.7C76.5,121.8,76,121.1,75.1,120.9z"/>
	<path class="st1" d="M70.4,119.4c-0.7-0.3-1.5-0.1-1.7,0.5s0.2,1.2,1,1.5c0.7,0.3,1.5,0.1,1.7-0.5S71.1,119.7,70.4,119.4z"/>
	<path class="st1" d="M65,115.9c-0.4,0.4-0.3,1.2,0.3,1.8c0.6,0.6,1.4,0.7,1.8,0.3s0.3-1.2-0.3-1.8C66.2,115.7,65.4,115.5,65,115.9z   "/>
	<path class="st1" d="M62.1,111.9c-0.5,0.3-0.5,1-0.1,1.7s1.1,0.9,1.6,0.6s0.5-1,0.1-1.7S62.5,111.6,62.1,111.9z"/>
	<ellipse transform="matrix(0.7071 -0.7071 0.7071 0.7071 -59.877 74.349)" class="st1" cx="59.8" cy="109.5" rx="0.9" ry="1.2"/>
	<path class="st1" d="M57.2,106.6c-0.5-0.3-1-0.2-1.2,0.1c-0.2,0.3,0,0.8,0.5,1.1s1,0.2,1.2-0.1S57.6,106.8,57.2,106.6z"/>
	<path class="st1" d="M51.5,110.1c-0.2-0.8-0.3-1.3-0.4-1.4v0c0,0,0,0,0,0c0,0,0,0,0,0v0c0,0.1-0.2,0.5-0.4,1.4   c-0.2,0.9-0.9,2.8-0.9,3.3c0,0.4-0.5,2.5,1.3,2.5v0c0,0,0,0,0,0s0,0,0,0v0c1.8,0,1.3-2,1.3-2.5C52.3,112.9,51.7,111,51.5,110.1z"/>
	<path class="st3" d="M196.6,88.2l0.3-1c-12.2-3.3-36.4-2.7-38.5-2.7c0.7-2.6,0.8-4.4,0.8-4.4c1.2-10.7,3.3-23.9-7-36.1   c-0.6-0.7-1.3-1.4-1.9-2c0.2-0.7,2.1-7,0.7-13.7c-1.4-7.1-2.2-6.9-2.2-6.9s0.4-0.1-0.6-0.1c-1,0-4.4-0.1-8.2,1.3   c-3.8,1.4-12,5.9-13.3,7c-0.1,0-0.1,0.1-0.1,0.1c-10.1-2.5-18.6-2.4-19.2-2.4c-0.6,0-10.2-0.1-21.1,2.7c-1.6-1.2-9.9-6.1-13.9-7.5   c-3.9-1.3-7.2-1.3-8.2-1.3c-1,0-0.6,0.1-0.6,0.1s-0.6-0.2-2.2,6.9c-1.5,6.5,0.4,13.5,1,15.2c-0.2,0.3-0.4,0.5-0.7,0.8   c-10.4,12.6-9.1,22.1-6.7,36c0,0,0.5,1.8,1.5,4.3c-4.3-0.1-26.5-0.5-38,2.7l0.3,1C30.5,85,54,85.5,56.8,85.6   c0.4,0.9,0.8,1.9,1.3,2.9c-4.1,0.2-25.2,1.3-39.4,5.6l0.3,1c14.8-4.5,37-5.5,39.6-5.6c1.7,3.3,4.1,6.7,7.1,8.8   c6.9,4.7,14.8,9.2,27.5,9.7c0.1,0,0.2,0,0.3,0l13.8,0.3v0l0.1,0l0.1,0v0l13.8-0.3c0.4,0,0.8,0,1.2-0.1c12.2-0.6,21-3.4,27.2-8.8   c3.4-3,5.7-6.5,7.1-9.7c2,0.1,24.7,1,39.7,5.6l0.3-1c-14.5-4.4-35.9-5.5-39.6-5.6c0.4-1,0.8-2,1-2.9   C160.1,85.5,184.5,84.9,196.6,88.2z M143.5,94.5c0,0-3.5,5.3-13.3,7.8c-9.7,2.5-22.3,2.1-22.8,2.1c-0.8,0-12.8,0.2-22.3-2.3   c-9.9-2.6-13.3-7.8-13.3-7.8c-2-2.2-5-7.5-4.4-16.1c0.5-8.6,8.2-14.1,12-15.5c3.8-1.4,9.8-1,18.5-0.5s9.4,0.3,9.4,0.3h0.2   c0,0,0.7,0.1,9.4-0.3c8.7-0.5,14.7-0.9,18.5,0.5c0.3,0.1,0.7,0.3,1,0.4c0.1,0,0.2,0.1,0.3,0.1c0.4,0.2,0.7,0.4,1.1,0.6   c0,0,0,0,0.1,0c0.4,0.2,0.8,0.5,1.2,0.8c0.1,0.1,0.2,0.1,0.3,0.2c0.4,0.3,0.8,0.6,1.2,0.9c0,0,0.1,0.1,0.1,0.1   c0.4,0.4,0.8,0.7,1.2,1.1c0.1,0.1,0.2,0.2,0.3,0.3c0.4,0.4,0.7,0.8,1.1,1.2c0.1,0.1,0.1,0.1,0.2,0.2c0.4,0.5,0.7,1,1.1,1.5   c0.1,0.1,0.2,0.3,0.3,0.4c0.3,0.5,0.6,0.9,0.8,1.4c0,0.1,0.1,0.1,0.1,0.2c0,0,0,0.1,0,0.1c0.1,0.3,0.2,0.5,0.3,0.8   c0.1,0.2,0.2,0.4,0.3,0.6c0.1,0.3,0.2,0.6,0.3,0.9c0.1,0.2,0.1,0.4,0.2,0.6c0.1,0.3,0.2,0.7,0.2,1c0,0.2,0.1,0.3,0.1,0.5   c0.1,0.5,0.2,1.1,0.2,1.6C147.8,86.8,145.5,92.3,143.5,94.5z"/>
</g>
</svg>