<svg width="56" height="47" viewBox="0 0 56 47" fill="none" xmlns="http://www.w3.org/2000/svg">
<path d="M50.2451 11.7005C50.2791 12.2104 50.2791 12.7204 50.2791 13.235C50.2791 28.9155 38.7759 47 17.7417 47V46.9906C11.5282 47 5.44369 45.153 0.212891 41.6705C1.11639 41.7833 2.02442 41.8397 2.93472 41.8421C8.084 41.8468 13.0861 40.0538 17.1371 36.7523C12.2437 36.656 7.95266 33.345 6.45362 28.5114C8.16778 28.8544 9.93402 28.784 11.6165 28.3069C6.28152 27.1884 2.44334 22.3242 2.44334 16.6752C2.44334 16.6235 2.44334 16.5741 2.44334 16.5248C4.03296 17.4436 5.81279 17.9535 7.63338 18.0099C2.60864 14.5251 1.05978 7.58829 4.0941 2.16483C9.90006 9.57861 18.4663 14.0856 27.6621 14.5626C26.7405 10.441 27.9995 6.12198 30.9704 3.22461C35.5763 -1.2683 42.8201 -1.03802 47.1497 3.73923C49.7107 3.21521 52.1654 2.24003 54.4117 0.858313C53.558 3.60529 51.7713 5.93869 49.3847 7.42145C51.6513 7.14417 53.8659 6.51441 55.9515 5.55332C54.4162 7.94077 52.4824 10.0204 50.2451 11.7005Z" fill="#1D9BF0"/>
</svg>
