<?xml version="1.0" encoding="UTF-8"?>
<svg version="1.1" viewBox="0 0 64 64" xmlns="http://www.w3.org/2000/svg" xmlns:xlink="http://www.w3.org/1999/xlink">
    <!--Generated by IJSVG (https://github.com/iconjar/IJSVG)-->
    <path d="M20,54c-2.2,0 -4,-1.8 -4,-4v-35.3c-8.3,4.2 -14,12.9 -14,22.8c0,14.1 11.4,25.5 25.5,25.5c7.8,0 14.8,-3.5 19.4,-9h-26.9Z" fill="#E9EAEB"></path>
    <path fill="none" stroke="#384a9a" stroke-width="2" d="M39,54h-19c-2.2,0 -4,-1.8 -4,-4v-44c0,-2.2 1.8,-4 4,-4h33c2.2,0 4,1.8 4,4v26"></path>
    <path d="M35,46h-15v-36h33v22" stroke-width="2" fill="none" stroke="#384a9a"></path>
    <path fill="#FFF" d="M58,37h-2c0,-1.1 -1.1,-2 -2,-2h-2c-0.4,-0.6 -1.4,-1 -2,-1h-2v-7c0,-1.1 -0.9,-2 -2,-2c-1.1,0 -2,0.9 -2,2v15l-1.3,1.3l-2.6,-4.1c-1.6,-2.2 -4.1,-1 -4.1,0c0,0 3,9.7 3.5,10.4c0.7,1.1 3.5,3.6 3.5,4.4c0,0.8 0,4 0,4h15c0,0 0,-1.7 0,-3c0,-1.3 2,-3 2,-5v-11c0,-1.1 -1.1,-2 -2,-2Z"></path>
    <g stroke-width="2" fill="none" stroke="#384a9a">
        <path d="M43,58c0,0 0,-3.1 0,-4c0,-0.9 -2.8,-3.3 -3.5,-4.4c-0.5,-0.7 -3.5,-10.4 -3.5,-10.4c0,-1 2.4,-2.2 4.1,0l2.6,4.1l1.3,-1.3v-15c0,-1.1 0.9,-2 2,-2v0c1.1,0 2,0.9 2,2v13v-1v-5h2c0.6,0 1.6,0.4 2,1h2c0.9,0 2,0.9 2,2h2c0.9,0 2,0.9 2,2v11c0,2 -2,3.7 -2,5c0,1.3 0,3 0,3"></path>
        <path d="M52,35v5"></path>
        <path d="M56,37v4"></path>
    </g>
    <path fill="#f7ca45" d="M41,57h19v5h-19Z"></path>
    <g stroke-width="2" fill="none" stroke="#384a9a">
        <path d="M60,62v-5h-19v5"></path>
        <path d="M33,6h8"></path>
        <path fill="#FFF" d="M36,24h-12v-10h12Z"></path>
        <path d="M39,16h11"></path>
        <path d="M39,20h8"></path>
        <path d="M23,28h14"></path>
        <path d="M23,32h14"></path>
        <path d="M23,36h8"></path>
    </g>
</svg>