<?xml version="1.0" encoding="UTF-8"?>
<svg version="1.1" viewBox="0 0 64 64" xmlns="http://www.w3.org/2000/svg" xmlns:xlink="http://www.w3.org/1999/xlink">
    <!--Generated by IJSVG (https://github.com/iconjar/IJSVG)-->
    <path d="M52.5,24.3c-2.6,0 -4.5,-2.1 -4.5,-4.7v-1.6c0,-2.6 1.9,-4.7 4.5,-4.7c2.6,0 4.5,2.1 4.5,4.7v1.6c0,2.5 -1.9,4.7 -4.5,4.7Z" stroke-width="2" fill="#FFF" stroke="#384a9a"></path>
    <path fill="#f7ca45" d="M55,28c-1.8,0 -20.4,0 -22,0c0,2 2,5 5,5h8v27h12v-13h1c2.1,0 4,-2.4 4,-4.5v-9c0,-4.5 -3.3,-5.5 -8,-5.5Z"></path>
    <g stroke-width="2" fill="none" stroke="#384a9a">
        <path d="M46,60v-27h-8c-3,0 -5,-3 -5,-5c1.6,0 20.2,0 22,0c4.7,0 8,1 8,5.5v9c0,2.1 -1.9,4.2 -4,4.2"></path>
        <path d="M52,45v15"></path>
        <path d="M58,34v26"></path>
        <path d="M40,25v-5h-35v24h35v-8"></path>
        <path fill="#f7ca45" d="M20,26.3v10l8.3,-5Z"></path>
        <path stroke-linejoin="round" d="M42,48h-41v-42h43v19"></path>
        <path stroke-linejoin="round" d="M1,12h43"></path>
        <path stroke-linejoin="round" d="M4,9h2"></path>
        <path stroke-linejoin="round" d="M8,9h2"></path>
        <path stroke-linejoin="round" d="M12,9h2"></path>
        <path stroke-linejoin="round" d="M4,16h21"></path>
    </g>
</svg>