<svg width="240" height="240" viewBox="0 0 240 240" fill="none" xmlns="http://www.w3.org/2000/svg">
<path fill-rule="evenodd" clip-rule="evenodd" d="M143.2 110.4V65.4001C143.2 52.2557 132.544 41.6001 119.4 41.6001C106.255 41.6001 95.5996 52.2557 95.5996 65.4001V110.4H75.5996V65.4001C75.5996 41.21 95.2095 21.6001 119.4 21.6001C143.59 21.6001 163.2 41.21 163.2 65.4001V110.4H143.2Z" fill="#DEB63B"/>
<path fill-rule="evenodd" clip-rule="evenodd" d="M180 150C180 183.137 153.137 210 120 210C86.8629 210 60 183.137 60 150C60 116.863 86.8629 90 120 90C153.137 90 180 116.863 180 150ZM127.2 156.643C132.192 154.041 135.6 148.819 135.6 142.8C135.6 134.184 128.616 127.2 120 127.2C111.385 127.2 104.4 134.184 104.4 142.8C104.4 148.819 107.809 154.041 112.8 156.643V165.6C112.8 169.576 116.024 172.8 120 172.8C123.977 172.8 127.2 169.577 127.2 165.6V156.643Z" fill="#344389"/>
<path fill-rule="evenodd" clip-rule="evenodd" d="M120 230C180.751 230 230 180.751 230 120C230 101.818 225.589 84.6671 217.778 69.5578L226.449 64.5518C235.106 81.1366 240 99.9967 240 120C240 186.274 186.274 240 120 240C87.2946 240 57.645 226.916 36 205.697V223.8H26V197.6V187.8V187.6H62V197.6H42.037C61.9573 217.613 89.5321 230 120 230ZM22.464 170.909C14.5025 155.686 10 138.369 10 120C10 59.2487 59.2487 10 120 10C150.468 10 178.043 22.3871 197.963 42.3999H179V52.3999H205H215V42.3999V16.3999H205V35.2946C183.273 13.4923 153.212 0 120 0C53.7258 0 0 53.7258 0 120C0 140.191 4.98649 159.217 13.7951 175.914L22.464 170.909Z" fill="#344389"/>
</svg>
