<svg width="200" height="200" viewBox="0 0 200 200" fill="none" xmlns="http://www.w3.org/2000/svg">
<path fill-rule="evenodd" clip-rule="evenodd" d="M119.333 91.9999V54.5C119.333 43.5463 110.453 34.6667 99.5 34.6667C88.5458 34.6667 79.6663 43.5463 79.6663 54.5V91.9999H62.9996V54.5C62.9996 34.3416 79.3412 18 99.5 18C119.658 18 136 34.3416 136 54.5V91.9999H119.333Z" fill="#F7CA44"/>
<path fill-rule="evenodd" clip-rule="evenodd" d="M150 125C150 152.614 127.614 175 100 175C72.3857 175 50 152.614 50 125C50 97.3858 72.3857 75 100 75C127.614 75 150 97.3858 150 125ZM106 130.536C110.16 128.368 113 124.016 113 119C113 111.82 107.18 106 100 106C92.8208 106 87 111.82 87 119C87 124.016 89.8408 128.368 94 130.536V138C94 141.313 96.6867 144 100 144C103.314 144 106 141.314 106 138V130.536Z" fill="#344389"/>
<path fill-rule="evenodd" clip-rule="evenodd" d="M100 191.667C150.626 191.667 191.667 150.626 191.667 100C191.667 84.8483 187.991 70.5559 181.482 57.9648L188.708 53.7932C195.922 67.6138 200 83.3306 200 100C200 155.228 155.228 200 100 200C72.7455 200 48.0375 189.097 30 171.414V186.5H21.6667V164.667V156.5V156.333H51.6667V164.667H35.0308C51.6311 181.344 74.6101 191.667 100 191.667ZM18.72 142.424C12.0854 129.738 8.33333 115.307 8.33333 100C8.33333 49.3739 49.3739 8.33333 100 8.33333C125.39 8.33333 148.369 18.6559 164.969 35.3332H149.167V43.6666H170.833H179.167V35.3332V13.6666H170.833V29.4122C152.727 11.2436 127.677 0 100 0C44.7715 0 0 44.7715 0 100C0 116.826 4.15541 132.681 11.4959 146.595L18.72 142.424Z" fill="#344389"/>
</svg>
