<svg width="240" height="240" viewBox="0 0 240 240" fill="none" xmlns="http://www.w3.org/2000/svg">
<path fill-rule="evenodd" clip-rule="evenodd" d="M220 0L220 220H0L220 0ZM192.5 137.5V192.5H137.5L192.5 137.5ZM181.474 83.2267C180.693 82.4457 179.426 82.4457 178.645 83.2267L83.2259 178.646C82.4448 179.427 82.4448 180.694 83.2259 181.475L92.8425 191.091C93.6236 191.872 94.8899 191.872 95.671 191.091L191.09 95.6718C191.871 94.8907 191.871 93.6244 191.09 92.8434L181.474 83.2267Z" fill="#344389"/>
<path fill-rule="evenodd" clip-rule="evenodd" d="M214.655 15.9888L210.766 12.0997L207.937 14.9281L211.826 18.8172L214.655 15.9888ZM83.9818 146.662L80.0927 142.773L77.2643 145.601L81.1534 149.491L83.9818 146.662ZM69.2032 153.663L73.0923 157.552L70.2639 160.38L66.3748 156.491L69.2032 153.663ZM25.6458 197.221L33.4239 204.999L30.5955 207.827L22.8173 200.049L25.6458 197.221ZM14.7567 208.11L18.6458 211.999L15.8173 214.827L11.9282 210.938L14.7567 208.11ZM40.4248 190.22L36.5357 186.331L33.7073 189.159L37.5964 193.049L40.4248 190.22ZM47.4252 175.442L51.3143 179.331L48.4859 182.159L44.5968 178.27L47.4252 175.442ZM66.0925 172.33L58.3143 164.552L55.4859 167.381L63.264 175.159L66.0925 172.33ZM90.9828 131.884L98.761 139.662L95.9326 142.49L88.1544 134.712L90.9828 131.884ZM105.761 124.884L101.872 120.995L99.0433 123.823L102.932 127.712L105.761 124.884ZM112.761 110.105L116.65 113.994L113.822 116.822L109.933 112.933L112.761 110.105ZM131.43 106.994L123.651 99.2156L120.823 102.044L128.601 109.822L131.43 106.994ZM134.541 88.326L138.43 92.2151L135.602 95.0435L131.713 91.1544L134.541 88.326ZM149.319 81.3256L145.43 77.4365L142.601 80.2649L146.49 84.154L149.319 81.3256ZM156.319 66.5473L164.097 74.3255L161.269 77.1539L153.49 69.3758L156.319 66.5473ZM171.098 59.5468L167.209 55.6577L164.38 58.4862L168.269 62.3752L171.098 59.5468ZM178.098 44.7682L181.987 48.6573L179.159 51.4857L175.27 47.5966L178.098 44.7682ZM196.766 41.657L188.987 33.8788L186.159 36.7072L193.937 44.4854L196.766 41.657ZM199.877 22.9895L203.766 26.8785L200.938 29.707L197.049 25.8179L199.877 22.9895Z" fill="#DEB63B"/>
<path fill-rule="evenodd" clip-rule="evenodd" d="M155.296 150.225L147.518 142.447L144.69 145.276L152.468 153.054L155.296 150.225ZM114.851 175.116L122.629 182.894L119.8 185.722L112.022 177.944L114.851 175.116ZM103.962 186.005L107.851 189.894L105.022 192.722L101.133 188.833L103.962 186.005ZM129.63 168.115L125.741 164.226L122.912 167.055L126.801 170.944L129.63 168.115ZM136.63 153.337L140.519 157.226L137.691 160.054L133.802 156.165L136.63 153.337ZM158.408 131.558L162.297 135.447L159.469 138.275L155.58 134.386L158.408 131.558ZM173.297 124.447L169.408 120.558L166.58 123.386L170.469 127.275L173.297 124.447ZM180.188 109.779L187.966 117.557L185.138 120.386L177.359 112.607L180.188 109.779ZM194.966 102.779L191.077 98.8894L188.248 101.718L192.137 105.607L194.966 102.779Z" fill="#DEB63B"/>
</svg>
