<svg width="200" height="200" viewBox="0 0 200 200" fill="none" xmlns="http://www.w3.org/2000/svg">
<path fill-rule="evenodd" clip-rule="evenodd" d="M100 179.167C143.722 179.167 179.167 143.723 179.167 100C179.167 56.2774 143.722 20.8333 100 20.8333C56.2774 20.8333 20.8333 56.2774 20.8333 100C20.8333 143.723 56.2774 179.167 100 179.167ZM100 159.375C132.792 159.375 159.375 132.792 159.375 100C159.375 67.2081 132.792 40.625 100 40.625C67.2081 40.625 40.625 67.2081 40.625 100C40.625 132.792 67.2081 159.375 100 159.375Z" fill="#F7CA44"/>
<path d="M166.667 133.333C185.076 133.333 200 118.41 200 100C200 81.5905 185.076 66.6667 166.667 66.6667C148.257 66.6667 133.333 81.5905 133.333 100C133.333 118.41 148.257 133.333 166.667 133.333Z" fill="#344389"/>
<path d="M33.3333 133.333C51.7428 133.333 66.6667 118.41 66.6667 100C66.6667 81.5905 51.7428 66.6667 33.3333 66.6667C14.9238 66.6667 0 81.5905 0 100C0 118.41 14.9238 133.333 33.3333 133.333Z" fill="#344389"/>
<path d="M100 200C118.41 200 133.333 185.076 133.333 166.667C133.333 148.257 118.41 133.333 100 133.333C81.5905 133.333 66.6667 148.257 66.6667 166.667C66.6667 185.076 81.5905 200 100 200Z" fill="#344389"/>
<path d="M100 66.6667C118.41 66.6667 133.333 51.7428 133.333 33.3333C133.333 14.9238 118.41 0 100 0C81.5905 0 66.6667 14.9238 66.6667 33.3333C66.6667 51.7428 81.5905 66.6667 100 66.6667Z" fill="#344389"/>
<path d="M33.3333 98.3333C37.4754 98.3333 40.8333 94.9755 40.8333 90.8333C40.8333 86.6912 37.4754 83.3333 33.3333 83.3333C29.1912 83.3333 25.8333 86.6912 25.8333 90.8333C25.8333 94.9755 29.1912 98.3333 33.3333 98.3333Z" stroke="#F7CA44" stroke-width="4"/>
<path d="M166.667 98.3333C170.809 98.3333 174.167 94.9755 174.167 90.8333C174.167 86.6912 170.809 83.3333 166.667 83.3333C162.525 83.3333 159.167 86.6912 159.167 90.8333C159.167 94.9755 162.525 98.3333 166.667 98.3333Z" stroke="#F7CA44" stroke-width="4"/>
<path fill-rule="evenodd" clip-rule="evenodd" d="M166.667 105C178.173 105 187.5 114.328 187.5 125.833H184.167C184.167 116.168 176.332 108.333 166.667 108.333C157.002 108.333 149.167 116.168 149.167 125.833H145.833C145.833 114.328 155.161 105 166.667 105Z" fill="#F7CA44"/>
<path fill-rule="evenodd" clip-rule="evenodd" d="M33.3333 105C44.8393 105 54.1667 114.328 54.1667 125.833H50.8333C50.8333 116.168 42.9983 108.333 33.3333 108.333C23.6683 108.333 15.8333 116.168 15.8333 125.833H12.5C12.5 114.328 21.8274 105 33.3333 105Z" fill="#F7CA44"/>
<path d="M88.3333 21.6667V42.5" stroke="#F7CA44" stroke-width="4"/>
<path fill-rule="evenodd" clip-rule="evenodd" d="M97.8125 17.5238L101.146 13.3333V16.25H105.977C107.927 16.25 109.799 17.0251 111.178 18.4048C112.558 19.7845 113.333 21.6558 113.333 23.607V42.5H110V23.607C110 22.5398 109.576 21.5164 108.822 20.7618C108.067 20.0073 107.043 19.5833 105.977 19.5833H101.146V22.5L97.8125 18.3095L97.5 17.9167L97.8125 17.5238Z" fill="#F7CA44"/>
<path d="M94.1667 155.833V176.667" stroke="#F7CA44" stroke-width="4"/>
<path d="M93.8334 154.833L98.6667 163.828C99.8192 165.973 101.428 167.838 103.378 169.294L106.333 171.5" stroke="#F7CA44" stroke-width="4"/>
<path d="M88.3333 22.5C91.0947 22.5 93.3333 20.2614 93.3333 17.5C93.3333 14.7386 91.0947 12.5 88.3333 12.5C85.5719 12.5 83.3333 14.7386 83.3333 17.5C83.3333 20.2614 85.5719 22.5 88.3333 22.5Z" stroke="#F7CA44" stroke-width="4"/>
<path d="M94.1667 154.167C96.9281 154.167 99.1667 151.928 99.1667 149.167C99.1667 146.405 96.9281 144.167 94.1667 144.167C91.4053 144.167 89.1667 146.405 89.1667 149.167C89.1667 151.928 91.4053 154.167 94.1667 154.167Z" stroke="#F7CA44" stroke-width="4"/>
<path d="M88.3333 53.3333C91.0947 53.3333 93.3333 51.0948 93.3333 48.3333C93.3333 45.5719 91.0947 43.3333 88.3333 43.3333C85.5719 43.3333 83.3333 45.5719 83.3333 48.3333C83.3333 51.0948 85.5719 53.3333 88.3333 53.3333Z" stroke="#F7CA44" stroke-width="4"/>
<path d="M94.1667 187.5C96.9281 187.5 99.1667 185.261 99.1667 182.5C99.1667 179.739 96.9281 177.5 94.1667 177.5C91.4053 177.5 89.1667 179.739 89.1667 182.5C89.1667 185.261 91.4053 187.5 94.1667 187.5Z" stroke="#F7CA44" stroke-width="4"/>
<path d="M112 53.5C114.761 53.5 117 51.2614 117 48.5C117 45.7385 114.761 43.5 112 43.5C109.239 43.5 107 45.7385 107 48.5C107 51.2614 109.239 53.5 112 53.5Z" stroke="#F7CA44" stroke-width="4"/>
<path d="M110.833 178.333C113.595 178.333 115.833 176.095 115.833 173.333C115.833 170.572 113.595 168.333 110.833 168.333C108.072 168.333 105.833 170.572 105.833 173.333C105.833 176.095 108.072 178.333 110.833 178.333Z" stroke="#F7CA44" stroke-width="4"/>
<path d="M99.1667 116.667C108.371 116.667 115.833 109.205 115.833 100C115.833 90.7952 108.371 83.3333 99.1667 83.3333C89.9619 83.3333 82.5 90.7952 82.5 100C82.5 109.205 89.9619 116.667 99.1667 116.667Z" fill="#344389"/>
</svg>
