<svg xmlns="http://www.w3.org/2000/svg" xmlns:xlink="http://www.w3.org/1999/xlink" viewBox="0 0 145.38 263.09"><defs><linearGradient id="a" x1="0.04" y1="227.31" x2="41.54" y2="227.31" gradientUnits="userSpaceOnUse"><stop offset="0" stop-color="#f8cb45"/><stop offset="1" stop-color="#cca835"/></linearGradient><linearGradient id="b" x1="41.4" y1="227.44" x2="82.63" y2="227.44" xlink:href="#a"/><linearGradient id="c" x1="0.28" y1="191.62" x2="82.63" y2="191.62" xlink:href="#a"/><linearGradient id="d" x1="83.04" y1="143.75" x2="103.74" y2="179.6" gradientUnits="userSpaceOnUse"><stop offset="0" stop-color="#3b4d9d"/><stop offset="1" stop-color="#273572"/></linearGradient><linearGradient id="e" x1="0.14" y1="143.81" x2="41.54" y2="215.52" xlink:href="#d"/><linearGradient id="f" x1="62.34" y1="107.9" x2="83.04" y2="143.75" xlink:href="#d"/><linearGradient id="g" x1="41.64" y1="95.75" x2="62.34" y2="59.89" gradientUnits="userSpaceOnUse"><stop offset="0" stop-color="#59b8da"/><stop offset="1" stop-color="#4999b6"/></linearGradient><linearGradient id="h" x1="103.93" y1="131.71" x2="145.32" y2="60" xlink:href="#g"/><linearGradient id="i" x1="62.34" y1="59.89" x2="83.03" y2="24.04" xlink:href="#g"/></defs><title>Asset 2</title><polygon points="41.54 215.52 41.4 263.09 0.04 239.19 0.28 191.54 41.54 215.52" fill="url(#a)"/><polygon points="41.54 215.52 82.63 191.79 82.49 239.19 41.4 263.09 41.54 215.52" fill="url(#b)"/><polygon points="0.28 191.54 41.26 167.72 82.63 191.79 41.54 215.52 0.28 191.54" fill="url(#c)"/><polygon points="41.4 167.79 41.54 215.52 145.38 155.57 145.24 107.84 41.4 167.79" fill="url(#d)"/><polygon points="41.4 167.79 0.14 143.81 0.28 191.54 41.54 215.52 41.4 167.79" fill="url(#e)"/><polygon points="145.24 107.84 103.98 83.86 0.14 143.81 41.4 167.79 145.24 107.84" fill="url(#f)"/><polygon points="103.97 83.93 103.84 131.66 0 71.71 0.14 23.98 103.97 83.93" fill="url(#g)"/><polygon points="103.97 83.93 145.24 59.95 145.24 107.84 103.84 131.66 103.97 83.93" fill="url(#h)"/><polygon points="0.14 23.98 41.4 0 145.24 59.95 103.97 83.93 0.14 23.98" fill="url(#i)"/></svg>