<svg width="200" height="200" viewBox="0 0 200 200" fill="none" xmlns="http://www.w3.org/2000/svg">
<path fill-rule="evenodd" clip-rule="evenodd" d="M183.333 0V183.333H0L183.333 0ZM160.417 114.583V160.417H114.583L160.417 114.583ZM151.228 69.3556C150.577 68.7048 149.522 68.7048 148.871 69.3556L69.3549 148.872C68.704 149.523 68.704 150.578 69.3549 151.229L77.3688 159.243C78.0197 159.893 79.0749 159.893 79.7258 159.243L159.242 79.7265C159.893 79.0756 159.893 78.0203 159.242 77.3695L151.228 69.3556Z" fill="#344389"/>
<path fill-rule="evenodd" clip-rule="evenodd" d="M178.879 13.324L175.638 10.0831L173.281 12.4401L176.522 15.681L178.879 13.324ZM69.9849 122.218L66.744 118.978L64.387 121.334L67.6279 124.576L69.9849 122.218ZM57.6694 128.053L60.9103 131.293L58.5533 133.65L55.3124 130.409L57.6694 128.053ZM21.3716 164.351L27.8533 170.833L25.4963 173.189L19.0145 166.708L21.3716 164.351ZM12.2973 173.425L15.5382 176.666L13.1812 179.023L9.94024 175.782L12.2973 173.425ZM33.6874 158.517L30.4465 155.276L28.0895 157.633L31.3304 160.874L33.6874 158.517ZM39.5211 146.202L42.762 149.443L40.405 151.799L37.1641 148.558L39.5211 146.202ZM55.0772 143.608L48.5953 137.127L46.2383 139.484L52.7201 145.966L55.0772 143.608ZM75.8191 109.903L82.3009 116.385L79.9439 118.742L73.4621 112.26L75.8191 109.903ZM88.1342 104.07L84.8934 100.829L82.5362 103.186L85.7767 106.427L88.1342 104.07ZM93.9676 91.7542L97.2084 94.995L94.8517 97.3517L91.6109 94.1108L93.9676 91.7542ZM109.525 89.1617L103.043 82.6797L100.686 85.0367L107.168 91.5183L109.525 89.1617ZM112.118 73.605L115.358 76.8459L113.002 79.2029L109.761 75.962L112.118 73.605ZM124.433 67.7713L121.192 64.5304L118.834 66.8874L122.075 70.1283L124.433 67.7713ZM130.266 55.4561L136.748 61.9379L134.391 64.2949L127.908 57.8132L130.266 55.4561ZM142.582 49.6223L139.341 46.3814L136.983 48.7385L140.224 51.9793L142.582 49.6223ZM148.415 37.3068L151.656 40.5478L149.299 42.9048L146.058 39.6638L148.415 37.3068ZM163.972 34.7142L157.489 28.2323L155.133 30.5893L161.614 37.0712L163.972 34.7142ZM166.564 19.1579L169.805 22.3988L167.448 24.7558L164.208 21.5149L166.564 19.1579Z" fill="#F7CA44"/>
<path fill-rule="evenodd" clip-rule="evenodd" d="M129.413 125.187L122.932 118.706L120.575 121.063L127.057 127.545L129.413 125.187ZM95.7092 145.93L102.191 152.412L99.8334 154.768L93.3517 148.287L95.7092 145.93ZM86.635 155.004L89.8759 158.245L87.5184 160.602L84.2775 157.361L86.635 155.004ZM108.025 140.096L104.784 136.855L102.427 139.212L105.668 142.453L108.025 140.096ZM113.858 127.781L117.099 131.022L114.743 133.378L111.502 130.137L113.858 127.781ZM132.007 109.632L135.248 112.872L132.891 115.229L129.65 111.988L132.007 109.632ZM144.414 103.706L141.173 100.465L138.817 102.822L142.058 106.062L144.414 103.706ZM150.157 91.4825L156.638 97.9641L154.282 100.322L147.799 93.8391L150.157 91.4825ZM162.472 85.6491L159.231 82.4078L156.873 84.765L160.114 88.0058L162.472 85.6491Z" fill="#F7CA44"/>
</svg>
